<svg xmlns="http://www.w3.org/2000/svg" viewBox="0 0 1396 268" width="100%" height="100%">
  <defs>
    <linearGradient id="dots-a" x1="2.397%" x2="100%" y1="48.252%" y2="51.003%">
      <stop offset="0%" stop-color="#2BD9D9"/>
      <stop offset="29.265%" stop-color="#3DCC3D"/>
      <stop offset="57.547%" stop-color="#FFD426"/>
      <stop offset="79.122%" stop-color="#F7578C"/>
      <stop offset="100%" stop-color="#0AF"/>
    </linearGradient>
  </defs>
  <path fill="url(#dots-a)" fill-rule="evenodd" d="M1416,280 C1414.9,280 1414,280.9 1414,282 C1414,283.1 1414.9,284 1416,284 C1417.1,284 1418,283.1 1418,282 C1418,280.9 1417.1,280 1416,280 Z M1392,280 C1390.9,280 1390,280.9 1390,282 C1390,283.1 1390.9,284 1392,284 C1393.1,284 1394,283.1 1394,282 C1394,280.9 1393.1,280 1392,280 Z M1368,280 C1366.9,280 1366,280.9 1366,282 C1366,283.1 1366.9,284 1368,284 C1369.1,284 1370,283.1 1370,282 C1370,280.9 1369.1,280 1368,280 Z M1344,280 C1342.9,280 1342,280.9 1342,282 C1342,283.1 1342.9,284 1344,284 C1345.1,284 1346,283.1 1346,282 C1346,280.9 1345.1,280 1344,280 Z M1320,280 C1318.9,280 1318,280.9 1318,282 C1318,283.1 1318.9,284 1320,284 C1321.1,284 1322,283.1 1322,282 C1322,280.9 1321.1,280 1320,280 Z M1296,280 C1294.9,280 1294,280.9 1294,282 C1294,283.1 1294.9,284 1296,284 C1297.1,284 1298,283.1 1298,282 C1298,280.9 1297.1,280 1296,280 Z M1272,280 C1270.9,280 1270,280.9 1270,282 C1270,283.1 1270.9,284 1272,284 C1273.1,284 1274,283.1 1274,282 C1274,280.9 1273.1,280 1272,280 Z M1248,280 C1246.9,280 1246,280.9 1246,282 C1246,283.1 1246.9,284 1248,284 C1249.1,284 1250,283.1 1250,282 C1250,280.9 1249.1,280 1248,280 Z M1224,280 C1222.9,280 1222,280.9 1222,282 C1222,283.1 1222.9,284 1224,284 C1225.1,284 1226,283.1 1226,282 C1226,280.9 1225.1,280 1224,280 Z M1200,280 C1198.9,280 1198,280.9 1198,282 C1198,283.1 1198.9,284 1200,284 C1201.1,284 1202,283.1 1202,282 C1202,280.9 1201.1,280 1200,280 Z M1176,280 C1174.9,280 1174,280.9 1174,282 C1174,283.1 1174.9,284 1176,284 C1177.1,284 1178,283.1 1178,282 C1178,280.9 1177.1,280 1176,280 Z M1152,280 C1150.9,280 1150,280.9 1150,282 C1150,283.1 1150.9,284 1152,284 C1153.1,284 1154,283.1 1154,282 C1154,280.9 1153.1,280 1152,280 Z M1128,280 C1126.9,280 1126,280.9 1126,282 C1126,283.1 1126.9,284 1128,284 C1129.1,284 1130,283.1 1130,282 C1130,280.9 1129.1,280 1128,280 Z M1104,280 C1102.9,280 1102,280.9 1102,282 C1102,283.1 1102.9,284 1104,284 C1105.1,284 1106,283.1 1106,282 C1106,280.9 1105.1,280 1104,280 Z M1080,280 C1078.9,280 1078,280.9 1078,282 C1078,283.1 1078.9,284 1080,284 C1081.1,284 1082,283.1 1082,282 C1082,280.9 1081.1,280 1080,280 Z M1056,280 C1054.9,280 1054,280.9 1054,282 C1054,283.1 1054.9,284 1056,284 C1057.1,284 1058,283.1 1058,282 C1058,280.9 1057.1,280 1056,280 Z M1032,280 C1030.9,280 1030,280.9 1030,282 C1030,283.1 1030.9,284 1032,284 C1033.1,284 1034,283.1 1034,282 C1034,280.9 1033.1,280 1032,280 Z M1008,280 C1006.9,280 1006,280.9 1006,282 C1006,283.1 1006.9,284 1008,284 C1009.1,284 1010,283.1 1010,282 C1010,280.9 1009.1,280 1008,280 Z M984,280 C982.9,280 982,280.9 982,282 C982,283.1 982.9,284 984,284 C985.1,284 986,283.1 986,282 C986,280.9 985.1,280 984,280 Z M960,280 C958.9,280 958,280.9 958,282 C958,283.1 958.9,284 960,284 C961.1,284 962,283.1 962,282 C962,280.9 961.1,280 960,280 Z M936,280 C934.9,280 934,280.9 934,282 C934,283.1 934.9,284 936,284 C937.1,284 938,283.1 938,282 C938,280.9 937.1,280 936,280 Z M912,280 C910.9,280 910,280.9 910,282 C910,283.1 910.9,284 912,284 C913.1,284 914,283.1 914,282 C914,280.9 913.1,280 912,280 Z M888,280 C886.9,280 886,280.9 886,282 C886,283.1 886.9,284 888,284 C889.1,284 890,283.1 890,282 C890,280.9 889.1,280 888,280 Z M864,280 C862.9,280 862,280.9 862,282 C862,283.1 862.9,284 864,284 C865.1,284 866,283.1 866,282 C866,280.9 865.1,280 864,280 Z M840,280 C838.9,280 838,280.9 838,282 C838,283.1 838.9,284 840,284 C841.1,284 842,283.1 842,282 C842,280.9 841.1,280 840,280 Z M816,280 C814.9,280 814,280.9 814,282 C814,283.1 814.9,284 816,284 C817.1,284 818,283.1 818,282 C818,280.9 817.1,280 816,280 Z M792,280 C790.9,280 790,280.9 790,282 C790,283.1 790.9,284 792,284 C793.1,284 794,283.1 794,282 C794,280.9 793.1,280 792,280 Z M768,280 C766.9,280 766,280.9 766,282 C766,283.1 766.9,284 768,284 C769.1,284 770,283.1 770,282 C770,280.9 769.1,280 768,280 Z M744,280 C742.9,280 742,280.9 742,282 C742,283.1 742.9,284 744,284 C745.1,284 746,283.1 746,282 C746,280.9 745.1,280 744,280 Z M720,280 C718.9,280 718,280.9 718,282 C718,283.1 718.9,284 720,284 C721.1,284 722,283.1 722,282 C722,280.9 721.1,280 720,280 Z M696,280 C694.9,280 694,280.9 694,282 C694,283.1 694.9,284 696,284 C697.1,284 698,283.1 698,282 C698,280.9 697.1,280 696,280 Z M672,280 C670.9,280 670,280.9 670,282 C670,283.1 670.9,284 672,284 C673.1,284 674,283.1 674,282 C674,280.9 673.1,280 672,280 Z M648,280 C646.9,280 646,280.9 646,282 C646,283.1 646.9,284 648,284 C649.1,284 650,283.1 650,282 C650,280.9 649.1,280 648,280 Z M624,280 C622.9,280 622,280.9 622,282 C622,283.1 622.9,284 624,284 C625.1,284 626,283.1 626,282 C626,280.9 625.1,280 624,280 Z M600,280 C598.9,280 598,280.9 598,282 C598,283.1 598.9,284 600,284 C601.1,284 602,283.1 602,282 C602,280.9 601.1,280 600,280 Z M576,280 C574.9,280 574,280.9 574,282 C574,283.1 574.9,284 576,284 C577.1,284 578,283.1 578,282 C578,280.9 577.1,280 576,280 Z M552,280 C550.9,280 550,280.9 550,282 C550,283.1 550.9,284 552,284 C553.1,284 554,283.1 554,282 C554,280.9 553.1,280 552,280 Z M528,280 C526.9,280 526,280.9 526,282 C526,283.1 526.9,284 528,284 C529.1,284 530,283.1 530,282 C530,280.9 529.1,280 528,280 Z M504,280 C502.9,280 502,280.9 502,282 C502,283.1 502.9,284 504,284 C505.1,284 506,283.1 506,282 C506,280.9 505.1,280 504,280 Z M480,280 C478.9,280 478,280.9 478,282 C478,283.1 478.9,284 480,284 C481.1,284 482,283.1 482,282 C482,280.9 481.1,280 480,280 Z M456,280 C454.9,280 454,280.9 454,282 C454,283.1 454.9,284 456,284 C457.1,284 458,283.1 458,282 C458,280.9 457.1,280 456,280 Z M432,280 C430.9,280 430,280.9 430,282 C430,283.1 430.9,284 432,284 C433.1,284 434,283.1 434,282 C434,280.9 433.1,280 432,280 Z M408,280 C406.9,280 406,280.9 406,282 C406,283.1 406.9,284 408,284 C409.1,284 410,283.1 410,282 C410,280.9 409.1,280 408,280 Z M384,280 C382.9,280 382,280.9 382,282 C382,283.1 382.9,284 384,284 C385.1,284 386,283.1 386,282 C386,280.9 385.1,280 384,280 Z M360,280 C358.9,280 358,280.9 358,282 C358,283.1 358.9,284 360,284 C361.1,284 362,283.1 362,282 C362,280.9 361.1,280 360,280 Z M336,280 C334.9,280 334,280.9 334,282 C334,283.1 334.9,284 336,284 C337.1,284 338,283.1 338,282 C338,280.9 337.1,280 336,280 Z M312,280 C310.9,280 310,280.9 310,282 C310,283.1 310.9,284 312,284 C313.1,284 314,283.1 314,282 C314,280.9 313.1,280 312,280 Z M288,280 C286.9,280 286,280.9 286,282 C286,283.1 286.9,284 288,284 C289.1,284 290,283.1 290,282 C290,280.9 289.1,280 288,280 Z M264,280 C262.9,280 262,280.9 262,282 C262,283.1 262.9,284 264,284 C265.1,284 266,283.1 266,282 C266,280.9 265.1,280 264,280 Z M240,280 C238.9,280 238,280.9 238,282 C238,283.1 238.9,284 240,284 C241.1,284 242,283.1 242,282 C242,280.9 241.1,280 240,280 Z M216,280 C214.9,280 214,280.9 214,282 C214,283.1 214.9,284 216,284 C217.1,284 218,283.1 218,282 C218,280.9 217.1,280 216,280 Z M192,280 C190.9,280 190,280.9 190,282 C190,283.1 190.9,284 192,284 C193.1,284 194,283.1 194,282 C194,280.9 193.1,280 192,280 Z M168,280 C166.9,280 166,280.9 166,282 C166,283.1 166.9,284 168,284 C169.1,284 170,283.1 170,282 C170,280.9 169.1,280 168,280 Z M144,280 C142.9,280 142,280.9 142,282 C142,283.1 142.9,284 144,284 C145.1,284 146,283.1 146,282 C146,280.9 145.1,280 144,280 Z M120,280 C118.9,280 118,280.9 118,282 C118,283.1 118.9,284 120,284 C121.1,284 122,283.1 122,282 C122,280.9 121.1,280 120,280 Z M96,280 C94.9,280 94,280.9 94,282 C94,283.1 94.9,284 96,284 C97.1,284 98,283.1 98,282 C98,280.9 97.1,280 96,280 Z M72,280 C70.9,280 70,280.9 70,282 C70,283.1 70.9,284 72,284 C73.1,284 74,283.1 74,282 C74,280.9 73.1,280 72,280 Z M48,280 C46.9,280 46,280.9 46,282 C46,283.1 46.9,284 48,284 C49.1,284 50,283.1 50,282 C50,280.9 49.1,280 48,280 Z M24,280 C22.9,280 22,280.9 22,282 C22,283.1 22.9,284 24,284 C25.1,284 26,283.1 26,282 C26,280.9 25.1,280 24,280 Z M1416,256 C1414.9,256 1414,256.9 1414,258 C1414,259.1 1414.9,260 1416,260 C1417.1,260 1418,259.1 1418,258 C1418,256.9 1417.1,256 1416,256 Z M1392,256 C1390.9,256 1390,256.9 1390,258 C1390,259.1 1390.9,260 1392,260 C1393.1,260 1394,259.1 1394,258 C1394,256.9 1393.1,256 1392,256 Z M1368,256 C1366.9,256 1366,256.9 1366,258 C1366,259.1 1366.9,260 1368,260 C1369.1,260 1370,259.1 1370,258 C1370,256.9 1369.1,256 1368,256 Z M1344,256 C1342.9,256 1342,256.9 1342,258 C1342,259.1 1342.9,260 1344,260 C1345.1,260 1346,259.1 1346,258 C1346,256.9 1345.1,256 1344,256 Z M1320,256 C1318.9,256 1318,256.9 1318,258 C1318,259.1 1318.9,260 1320,260 C1321.1,260 1322,259.1 1322,258 C1322,256.9 1321.1,256 1320,256 Z M1296,256 C1294.9,256 1294,256.9 1294,258 C1294,259.1 1294.9,260 1296,260 C1297.1,260 1298,259.1 1298,258 C1298,256.9 1297.1,256 1296,256 Z M1272,256 C1270.9,256 1270,256.9 1270,258 C1270,259.1 1270.9,260 1272,260 C1273.1,260 1274,259.1 1274,258 C1274,256.9 1273.1,256 1272,256 Z M1248,256 C1246.9,256 1246,256.9 1246,258 C1246,259.1 1246.9,260 1248,260 C1249.1,260 1250,259.1 1250,258 C1250,256.9 1249.1,256 1248,256 Z M1224,256 C1222.9,256 1222,256.9 1222,258 C1222,259.1 1222.9,260 1224,260 C1225.1,260 1226,259.1 1226,258 C1226,256.9 1225.1,256 1224,256 Z M1200,256 C1198.9,256 1198,256.9 1198,258 C1198,259.1 1198.9,260 1200,260 C1201.1,260 1202,259.1 1202,258 C1202,256.9 1201.1,256 1200,256 Z M1176,256 C1174.9,256 1174,256.9 1174,258 C1174,259.1 1174.9,260 1176,260 C1177.1,260 1178,259.1 1178,258 C1178,256.9 1177.1,256 1176,256 Z M1152,256 C1150.9,256 1150,256.9 1150,258 C1150,259.1 1150.9,260 1152,260 C1153.1,260 1154,259.1 1154,258 C1154,256.9 1153.1,256 1152,256 Z M1128,256 C1126.9,256 1126,256.9 1126,258 C1126,259.1 1126.9,260 1128,260 C1129.1,260 1130,259.1 1130,258 C1130,256.9 1129.1,256 1128,256 Z M1104,256 C1102.9,256 1102,256.9 1102,258 C1102,259.1 1102.9,260 1104,260 C1105.1,260 1106,259.1 1106,258 C1106,256.9 1105.1,256 1104,256 Z M1080,256 C1078.9,256 1078,256.9 1078,258 C1078,259.1 1078.9,260 1080,260 C1081.1,260 1082,259.1 1082,258 C1082,256.9 1081.1,256 1080,256 Z M1056,256 C1054.9,256 1054,256.9 1054,258 C1054,259.1 1054.9,260 1056,260 C1057.1,260 1058,259.1 1058,258 C1058,256.9 1057.1,256 1056,256 Z M1032,256 C1030.9,256 1030,256.9 1030,258 C1030,259.1 1030.9,260 1032,260 C1033.1,260 1034,259.1 1034,258 C1034,256.9 1033.1,256 1032,256 Z M1008,256 C1006.9,256 1006,256.9 1006,258 C1006,259.1 1006.9,260 1008,260 C1009.1,260 1010,259.1 1010,258 C1010,256.9 1009.1,256 1008,256 Z M984,256 C982.9,256 982,256.9 982,258 C982,259.1 982.9,260 984,260 C985.1,260 986,259.1 986,258 C986,256.9 985.1,256 984,256 Z M960,256 C958.9,256 958,256.9 958,258 C958,259.1 958.9,260 960,260 C961.1,260 962,259.1 962,258 C962,256.9 961.1,256 960,256 Z M936,256 C934.9,256 934,256.9 934,258 C934,259.1 934.9,260 936,260 C937.1,260 938,259.1 938,258 C938,256.9 937.1,256 936,256 Z M912,256 C910.9,256 910,256.9 910,258 C910,259.1 910.9,260 912,260 C913.1,260 914,259.1 914,258 C914,256.9 913.1,256 912,256 Z M888,256 C886.9,256 886,256.9 886,258 C886,259.1 886.9,260 888,260 C889.1,260 890,259.1 890,258 C890,256.9 889.1,256 888,256 Z M864,256 C862.9,256 862,256.9 862,258 C862,259.1 862.9,260 864,260 C865.1,260 866,259.1 866,258 C866,256.9 865.1,256 864,256 Z M840,256 C838.9,256 838,256.9 838,258 C838,259.1 838.9,260 840,260 C841.1,260 842,259.1 842,258 C842,256.9 841.1,256 840,256 Z M816,256 C814.9,256 814,256.9 814,258 C814,259.1 814.9,260 816,260 C817.1,260 818,259.1 818,258 C818,256.9 817.1,256 816,256 Z M792,256 C790.9,256 790,256.9 790,258 C790,259.1 790.9,260 792,260 C793.1,260 794,259.1 794,258 C794,256.9 793.1,256 792,256 Z M768,256 C766.9,256 766,256.9 766,258 C766,259.1 766.9,260 768,260 C769.1,260 770,259.1 770,258 C770,256.9 769.1,256 768,256 Z M744,256 C742.9,256 742,256.9 742,258 C742,259.1 742.9,260 744,260 C745.1,260 746,259.1 746,258 C746,256.9 745.1,256 744,256 Z M720,256 C718.9,256 718,256.9 718,258 C718,259.1 718.9,260 720,260 C721.1,260 722,259.1 722,258 C722,256.9 721.1,256 720,256 Z M696,256 C694.9,256 694,256.9 694,258 C694,259.1 694.9,260 696,260 C697.1,260 698,259.1 698,258 C698,256.9 697.1,256 696,256 Z M672,256 C670.9,256 670,256.9 670,258 C670,259.1 670.9,260 672,260 C673.1,260 674,259.1 674,258 C674,256.9 673.1,256 672,256 Z M648,256 C646.9,256 646,256.9 646,258 C646,259.1 646.9,260 648,260 C649.1,260 650,259.1 650,258 C650,256.9 649.1,256 648,256 Z M624,256 C622.9,256 622,256.9 622,258 C622,259.1 622.9,260 624,260 C625.1,260 626,259.1 626,258 C626,256.9 625.1,256 624,256 Z M600,256 C598.9,256 598,256.9 598,258 C598,259.1 598.9,260 600,260 C601.1,260 602,259.1 602,258 C602,256.9 601.1,256 600,256 Z M576,256 C574.9,256 574,256.9 574,258 C574,259.1 574.9,260 576,260 C577.1,260 578,259.1 578,258 C578,256.9 577.1,256 576,256 Z M552,256 C550.9,256 550,256.9 550,258 C550,259.1 550.9,260 552,260 C553.1,260 554,259.1 554,258 C554,256.9 553.1,256 552,256 Z M528,256 C526.9,256 526,256.9 526,258 C526,259.1 526.9,260 528,260 C529.1,260 530,259.1 530,258 C530,256.9 529.1,256 528,256 Z M504,256 C502.9,256 502,256.9 502,258 C502,259.1 502.9,260 504,260 C505.1,260 506,259.1 506,258 C506,256.9 505.1,256 504,256 Z M480,256 C478.9,256 478,256.9 478,258 C478,259.1 478.9,260 480,260 C481.1,260 482,259.1 482,258 C482,256.9 481.1,256 480,256 Z M456,256 C454.9,256 454,256.9 454,258 C454,259.1 454.9,260 456,260 C457.1,260 458,259.1 458,258 C458,256.9 457.1,256 456,256 Z M432,256 C430.9,256 430,256.9 430,258 C430,259.1 430.9,260 432,260 C433.1,260 434,259.1 434,258 C434,256.9 433.1,256 432,256 Z M408,256 C406.9,256 406,256.9 406,258 C406,259.1 406.9,260 408,260 C409.1,260 410,259.1 410,258 C410,256.9 409.1,256 408,256 Z M384,256 C382.9,256 382,256.9 382,258 C382,259.1 382.9,260 384,260 C385.1,260 386,259.1 386,258 C386,256.9 385.1,256 384,256 Z M360,256 C358.9,256 358,256.9 358,258 C358,259.1 358.9,260 360,260 C361.1,260 362,259.1 362,258 C362,256.9 361.1,256 360,256 Z M336,256 C334.9,256 334,256.9 334,258 C334,259.1 334.9,260 336,260 C337.1,260 338,259.1 338,258 C338,256.9 337.1,256 336,256 Z M312,256 C310.9,256 310,256.9 310,258 C310,259.1 310.9,260 312,260 C313.1,260 314,259.1 314,258 C314,256.9 313.1,256 312,256 Z M288,256 C286.9,256 286,256.9 286,258 C286,259.1 286.9,260 288,260 C289.1,260 290,259.1 290,258 C290,256.9 289.1,256 288,256 Z M264,256 C262.9,256 262,256.9 262,258 C262,259.1 262.9,260 264,260 C265.1,260 266,259.1 266,258 C266,256.9 265.1,256 264,256 Z M240,256 C238.9,256 238,256.9 238,258 C238,259.1 238.9,260 240,260 C241.1,260 242,259.1 242,258 C242,256.9 241.1,256 240,256 Z M216,256 C214.9,256 214,256.9 214,258 C214,259.1 214.9,260 216,260 C217.1,260 218,259.1 218,258 C218,256.9 217.1,256 216,256 Z M192,256 C190.9,256 190,256.9 190,258 C190,259.1 190.9,260 192,260 C193.1,260 194,259.1 194,258 C194,256.9 193.1,256 192,256 Z M168,256 C166.9,256 166,256.9 166,258 C166,259.1 166.9,260 168,260 C169.1,260 170,259.1 170,258 C170,256.9 169.1,256 168,256 Z M144,256 C142.9,256 142,256.9 142,258 C142,259.1 142.9,260 144,260 C145.1,260 146,259.1 146,258 C146,256.9 145.1,256 144,256 Z M120,256 C118.9,256 118,256.9 118,258 C118,259.1 118.9,260 120,260 C121.1,260 122,259.1 122,258 C122,256.9 121.1,256 120,256 Z M96,256 C94.9,256 94,256.9 94,258 C94,259.1 94.9,260 96,260 C97.1,260 98,259.1 98,258 C98,256.9 97.1,256 96,256 Z M72,256 C70.9,256 70,256.9 70,258 C70,259.1 70.9,260 72,260 C73.1,260 74,259.1 74,258 C74,256.9 73.1,256 72,256 Z M48,256 C46.9,256 46,256.9 46,258 C46,259.1 46.9,260 48,260 C49.1,260 50,259.1 50,258 C50,256.9 49.1,256 48,256 Z M24,256 C22.9,256 22,256.9 22,258 C22,259.1 22.9,260 24,260 C25.1,260 26,259.1 26,258 C26,256.9 25.1,256 24,256 Z M1416,232 C1414.9,232 1414,232.9 1414,234 C1414,235.1 1414.9,236 1416,236 C1417.1,236 1418,235.1 1418,234 C1418,232.9 1417.1,232 1416,232 Z M1392,232 C1390.9,232 1390,232.9 1390,234 C1390,235.1 1390.9,236 1392,236 C1393.1,236 1394,235.1 1394,234 C1394,232.9 1393.1,232 1392,232 Z M1368,232 C1366.9,232 1366,232.9 1366,234 C1366,235.1 1366.9,236 1368,236 C1369.1,236 1370,235.1 1370,234 C1370,232.9 1369.1,232 1368,232 Z M1344,232 C1342.9,232 1342,232.9 1342,234 C1342,235.1 1342.9,236 1344,236 C1345.1,236 1346,235.1 1346,234 C1346,232.9 1345.1,232 1344,232 Z M1320,232 C1318.9,232 1318,232.9 1318,234 C1318,235.1 1318.9,236 1320,236 C1321.1,236 1322,235.1 1322,234 C1322,232.9 1321.1,232 1320,232 Z M1296,232 C1294.9,232 1294,232.9 1294,234 C1294,235.1 1294.9,236 1296,236 C1297.1,236 1298,235.1 1298,234 C1298,232.9 1297.1,232 1296,232 Z M1272,232 C1270.9,232 1270,232.9 1270,234 C1270,235.1 1270.9,236 1272,236 C1273.1,236 1274,235.1 1274,234 C1274,232.9 1273.1,232 1272,232 Z M1248,232 C1246.9,232 1246,232.9 1246,234 C1246,235.1 1246.9,236 1248,236 C1249.1,236 1250,235.1 1250,234 C1250,232.9 1249.1,232 1248,232 Z M1224,232 C1222.9,232 1222,232.9 1222,234 C1222,235.1 1222.9,236 1224,236 C1225.1,236 1226,235.1 1226,234 C1226,232.9 1225.1,232 1224,232 Z M1200,232 C1198.9,232 1198,232.9 1198,234 C1198,235.1 1198.9,236 1200,236 C1201.1,236 1202,235.1 1202,234 C1202,232.9 1201.1,232 1200,232 Z M1176,232 C1174.9,232 1174,232.9 1174,234 C1174,235.1 1174.9,236 1176,236 C1177.1,236 1178,235.1 1178,234 C1178,232.9 1177.1,232 1176,232 Z M1152,232 C1150.9,232 1150,232.9 1150,234 C1150,235.1 1150.9,236 1152,236 C1153.1,236 1154,235.1 1154,234 C1154,232.9 1153.1,232 1152,232 Z M1128,232 C1126.9,232 1126,232.9 1126,234 C1126,235.1 1126.9,236 1128,236 C1129.1,236 1130,235.1 1130,234 C1130,232.9 1129.1,232 1128,232 Z M1104,232 C1102.9,232 1102,232.9 1102,234 C1102,235.1 1102.9,236 1104,236 C1105.1,236 1106,235.1 1106,234 C1106,232.9 1105.1,232 1104,232 Z M1080,232 C1078.9,232 1078,232.9 1078,234 C1078,235.1 1078.9,236 1080,236 C1081.1,236 1082,235.1 1082,234 C1082,232.9 1081.1,232 1080,232 Z M1056,232 C1054.9,232 1054,232.9 1054,234 C1054,235.1 1054.9,236 1056,236 C1057.1,236 1058,235.1 1058,234 C1058,232.9 1057.1,232 1056,232 Z M1032,232 C1030.9,232 1030,232.9 1030,234 C1030,235.1 1030.9,236 1032,236 C1033.1,236 1034,235.1 1034,234 C1034,232.9 1033.1,232 1032,232 Z M1008,232 C1006.9,232 1006,232.9 1006,234 C1006,235.1 1006.9,236 1008,236 C1009.1,236 1010,235.1 1010,234 C1010,232.9 1009.1,232 1008,232 Z M984,232 C982.9,232 982,232.9 982,234 C982,235.1 982.9,236 984,236 C985.1,236 986,235.1 986,234 C986,232.9 985.1,232 984,232 Z M960,232 C958.9,232 958,232.9 958,234 C958,235.1 958.9,236 960,236 C961.1,236 962,235.1 962,234 C962,232.9 961.1,232 960,232 Z M936,232 C934.9,232 934,232.9 934,234 C934,235.1 934.9,236 936,236 C937.1,236 938,235.1 938,234 C938,232.9 937.1,232 936,232 Z M912,232 C910.9,232 910,232.9 910,234 C910,235.1 910.9,236 912,236 C913.1,236 914,235.1 914,234 C914,232.9 913.1,232 912,232 Z M888,232 C886.9,232 886,232.9 886,234 C886,235.1 886.9,236 888,236 C889.1,236 890,235.1 890,234 C890,232.9 889.1,232 888,232 Z M864,232 C862.9,232 862,232.9 862,234 C862,235.1 862.9,236 864,236 C865.1,236 866,235.1 866,234 C866,232.9 865.1,232 864,232 Z M840,232 C838.9,232 838,232.9 838,234 C838,235.1 838.9,236 840,236 C841.1,236 842,235.1 842,234 C842,232.9 841.1,232 840,232 Z M816,232 C814.9,232 814,232.9 814,234 C814,235.1 814.9,236 816,236 C817.1,236 818,235.1 818,234 C818,232.9 817.1,232 816,232 Z M792,232 C790.9,232 790,232.9 790,234 C790,235.1 790.9,236 792,236 C793.1,236 794,235.1 794,234 C794,232.9 793.1,232 792,232 Z M768,232 C766.9,232 766,232.9 766,234 C766,235.1 766.9,236 768,236 C769.1,236 770,235.1 770,234 C770,232.9 769.1,232 768,232 Z M744,232 C742.9,232 742,232.9 742,234 C742,235.1 742.9,236 744,236 C745.1,236 746,235.1 746,234 C746,232.9 745.1,232 744,232 Z M720,232 C718.9,232 718,232.9 718,234 C718,235.1 718.9,236 720,236 C721.1,236 722,235.1 722,234 C722,232.9 721.1,232 720,232 Z M696,232 C694.9,232 694,232.9 694,234 C694,235.1 694.9,236 696,236 C697.1,236 698,235.1 698,234 C698,232.9 697.1,232 696,232 Z M672,232 C670.9,232 670,232.9 670,234 C670,235.1 670.9,236 672,236 C673.1,236 674,235.1 674,234 C674,232.9 673.1,232 672,232 Z M648,232 C646.9,232 646,232.9 646,234 C646,235.1 646.9,236 648,236 C649.1,236 650,235.1 650,234 C650,232.9 649.1,232 648,232 Z M624,232 C622.9,232 622,232.9 622,234 C622,235.1 622.9,236 624,236 C625.1,236 626,235.1 626,234 C626,232.9 625.1,232 624,232 Z M600,232 C598.9,232 598,232.9 598,234 C598,235.1 598.9,236 600,236 C601.1,236 602,235.1 602,234 C602,232.9 601.1,232 600,232 Z M576,232 C574.9,232 574,232.9 574,234 C574,235.1 574.9,236 576,236 C577.1,236 578,235.1 578,234 C578,232.9 577.1,232 576,232 Z M552,232 C550.9,232 550,232.9 550,234 C550,235.1 550.9,236 552,236 C553.1,236 554,235.1 554,234 C554,232.9 553.1,232 552,232 Z M528,232 C526.9,232 526,232.9 526,234 C526,235.1 526.9,236 528,236 C529.1,236 530,235.1 530,234 C530,232.9 529.1,232 528,232 Z M504,232 C502.9,232 502,232.9 502,234 C502,235.1 502.9,236 504,236 C505.1,236 506,235.1 506,234 C506,232.9 505.1,232 504,232 Z M480,232 C478.9,232 478,232.9 478,234 C478,235.1 478.9,236 480,236 C481.1,236 482,235.1 482,234 C482,232.9 481.1,232 480,232 Z M456,232 C454.9,232 454,232.9 454,234 C454,235.1 454.9,236 456,236 C457.1,236 458,235.1 458,234 C458,232.9 457.1,232 456,232 Z M432,232 C430.9,232 430,232.9 430,234 C430,235.1 430.9,236 432,236 C433.1,236 434,235.1 434,234 C434,232.9 433.1,232 432,232 Z M408,232 C406.9,232 406,232.9 406,234 C406,235.1 406.9,236 408,236 C409.1,236 410,235.1 410,234 C410,232.9 409.1,232 408,232 Z M384,232 C382.9,232 382,232.9 382,234 C382,235.1 382.9,236 384,236 C385.1,236 386,235.1 386,234 C386,232.9 385.1,232 384,232 Z M360,232 C358.9,232 358,232.9 358,234 C358,235.1 358.9,236 360,236 C361.1,236 362,235.1 362,234 C362,232.9 361.1,232 360,232 Z M336,232 C334.9,232 334,232.9 334,234 C334,235.1 334.9,236 336,236 C337.1,236 338,235.1 338,234 C338,232.9 337.1,232 336,232 Z M312,232 C310.9,232 310,232.9 310,234 C310,235.1 310.9,236 312,236 C313.1,236 314,235.1 314,234 C314,232.9 313.1,232 312,232 Z M288,232 C286.9,232 286,232.9 286,234 C286,235.1 286.9,236 288,236 C289.1,236 290,235.1 290,234 C290,232.9 289.1,232 288,232 Z M264,232 C262.9,232 262,232.9 262,234 C262,235.1 262.9,236 264,236 C265.1,236 266,235.1 266,234 C266,232.9 265.1,232 264,232 Z M240,232 C238.9,232 238,232.9 238,234 C238,235.1 238.9,236 240,236 C241.1,236 242,235.1 242,234 C242,232.9 241.1,232 240,232 Z M216,232 C214.9,232 214,232.9 214,234 C214,235.1 214.9,236 216,236 C217.1,236 218,235.1 218,234 C218,232.9 217.1,232 216,232 Z M192,232 C190.9,232 190,232.9 190,234 C190,235.1 190.9,236 192,236 C193.1,236 194,235.1 194,234 C194,232.9 193.1,232 192,232 Z M168,232 C166.9,232 166,232.9 166,234 C166,235.1 166.9,236 168,236 C169.1,236 170,235.1 170,234 C170,232.9 169.1,232 168,232 Z M144,232 C142.9,232 142,232.9 142,234 C142,235.1 142.9,236 144,236 C145.1,236 146,235.1 146,234 C146,232.9 145.1,232 144,232 Z M120,232 C118.9,232 118,232.9 118,234 C118,235.1 118.9,236 120,236 C121.1,236 122,235.1 122,234 C122,232.9 121.1,232 120,232 Z M96,232 C94.9,232 94,232.9 94,234 C94,235.1 94.9,236 96,236 C97.1,236 98,235.1 98,234 C98,232.9 97.1,232 96,232 Z M72,232 C70.9,232 70,232.9 70,234 C70,235.1 70.9,236 72,236 C73.1,236 74,235.1 74,234 C74,232.9 73.1,232 72,232 Z M48,232 C46.9,232 46,232.9 46,234 C46,235.1 46.9,236 48,236 C49.1,236 50,235.1 50,234 C50,232.9 49.1,232 48,232 Z M24,232 C22.9,232 22,232.9 22,234 C22,235.1 22.9,236 24,236 C25.1,236 26,235.1 26,234 C26,232.9 25.1,232 24,232 Z M1416,208 C1414.9,208 1414,208.9 1414,210 C1414,211.1 1414.9,212 1416,212 C1417.1,212 1418,211.1 1418,210 C1418,208.9 1417.1,208 1416,208 Z M1392,208 C1390.9,208 1390,208.9 1390,210 C1390,211.1 1390.9,212 1392,212 C1393.1,212 1394,211.1 1394,210 C1394,208.9 1393.1,208 1392,208 Z M1368,208 C1366.9,208 1366,208.9 1366,210 C1366,211.1 1366.9,212 1368,212 C1369.1,212 1370,211.1 1370,210 C1370,208.9 1369.1,208 1368,208 Z M1344,208 C1342.9,208 1342,208.9 1342,210 C1342,211.1 1342.9,212 1344,212 C1345.1,212 1346,211.1 1346,210 C1346,208.9 1345.1,208 1344,208 Z M1320,208 C1318.9,208 1318,208.9 1318,210 C1318,211.1 1318.9,212 1320,212 C1321.1,212 1322,211.1 1322,210 C1322,208.9 1321.1,208 1320,208 Z M1296,208 C1294.9,208 1294,208.9 1294,210 C1294,211.1 1294.9,212 1296,212 C1297.1,212 1298,211.1 1298,210 C1298,208.9 1297.1,208 1296,208 Z M1272,208 C1270.9,208 1270,208.9 1270,210 C1270,211.1 1270.9,212 1272,212 C1273.1,212 1274,211.1 1274,210 C1274,208.9 1273.1,208 1272,208 Z M1248,208 C1246.9,208 1246,208.9 1246,210 C1246,211.1 1246.9,212 1248,212 C1249.1,212 1250,211.1 1250,210 C1250,208.9 1249.1,208 1248,208 Z M1224,208 C1222.9,208 1222,208.9 1222,210 C1222,211.1 1222.9,212 1224,212 C1225.1,212 1226,211.1 1226,210 C1226,208.9 1225.1,208 1224,208 Z M1200,208 C1198.9,208 1198,208.9 1198,210 C1198,211.1 1198.9,212 1200,212 C1201.1,212 1202,211.1 1202,210 C1202,208.9 1201.1,208 1200,208 Z M1176,208 C1174.9,208 1174,208.9 1174,210 C1174,211.1 1174.9,212 1176,212 C1177.1,212 1178,211.1 1178,210 C1178,208.9 1177.1,208 1176,208 Z M1152,208 C1150.9,208 1150,208.9 1150,210 C1150,211.1 1150.9,212 1152,212 C1153.1,212 1154,211.1 1154,210 C1154,208.9 1153.1,208 1152,208 Z M1128,208 C1126.9,208 1126,208.9 1126,210 C1126,211.1 1126.9,212 1128,212 C1129.1,212 1130,211.1 1130,210 C1130,208.9 1129.1,208 1128,208 Z M1104,208 C1102.9,208 1102,208.9 1102,210 C1102,211.1 1102.9,212 1104,212 C1105.1,212 1106,211.1 1106,210 C1106,208.9 1105.1,208 1104,208 Z M1080,208 C1078.9,208 1078,208.9 1078,210 C1078,211.1 1078.9,212 1080,212 C1081.1,212 1082,211.1 1082,210 C1082,208.9 1081.1,208 1080,208 Z M1056,208 C1054.9,208 1054,208.9 1054,210 C1054,211.1 1054.9,212 1056,212 C1057.1,212 1058,211.1 1058,210 C1058,208.9 1057.1,208 1056,208 Z M1032,208 C1030.9,208 1030,208.9 1030,210 C1030,211.1 1030.9,212 1032,212 C1033.1,212 1034,211.1 1034,210 C1034,208.9 1033.1,208 1032,208 Z M1008,208 C1006.9,208 1006,208.9 1006,210 C1006,211.1 1006.9,212 1008,212 C1009.1,212 1010,211.1 1010,210 C1010,208.9 1009.1,208 1008,208 Z M984,208 C982.9,208 982,208.9 982,210 C982,211.1 982.9,212 984,212 C985.1,212 986,211.1 986,210 C986,208.9 985.1,208 984,208 Z M960,208 C958.9,208 958,208.9 958,210 C958,211.1 958.9,212 960,212 C961.1,212 962,211.1 962,210 C962,208.9 961.1,208 960,208 Z M936,208 C934.9,208 934,208.9 934,210 C934,211.1 934.9,212 936,212 C937.1,212 938,211.1 938,210 C938,208.9 937.1,208 936,208 Z M912,208 C910.9,208 910,208.9 910,210 C910,211.1 910.9,212 912,212 C913.1,212 914,211.1 914,210 C914,208.9 913.1,208 912,208 Z M888,208 C886.9,208 886,208.9 886,210 C886,211.1 886.9,212 888,212 C889.1,212 890,211.1 890,210 C890,208.9 889.1,208 888,208 Z M864,208 C862.9,208 862,208.9 862,210 C862,211.1 862.9,212 864,212 C865.1,212 866,211.1 866,210 C866,208.9 865.1,208 864,208 Z M840,208 C838.9,208 838,208.9 838,210 C838,211.1 838.9,212 840,212 C841.1,212 842,211.1 842,210 C842,208.9 841.1,208 840,208 Z M816,208 C814.9,208 814,208.9 814,210 C814,211.1 814.9,212 816,212 C817.1,212 818,211.1 818,210 C818,208.9 817.1,208 816,208 Z M792,208 C790.9,208 790,208.9 790,210 C790,211.1 790.9,212 792,212 C793.1,212 794,211.1 794,210 C794,208.9 793.1,208 792,208 Z M768,208 C766.9,208 766,208.9 766,210 C766,211.1 766.9,212 768,212 C769.1,212 770,211.1 770,210 C770,208.9 769.1,208 768,208 Z M744,208 C742.9,208 742,208.9 742,210 C742,211.1 742.9,212 744,212 C745.1,212 746,211.1 746,210 C746,208.9 745.1,208 744,208 Z M720,208 C718.9,208 718,208.9 718,210 C718,211.1 718.9,212 720,212 C721.1,212 722,211.1 722,210 C722,208.9 721.1,208 720,208 Z M696,208 C694.9,208 694,208.9 694,210 C694,211.1 694.9,212 696,212 C697.1,212 698,211.1 698,210 C698,208.9 697.1,208 696,208 Z M672,208 C670.9,208 670,208.9 670,210 C670,211.1 670.9,212 672,212 C673.1,212 674,211.1 674,210 C674,208.9 673.1,208 672,208 Z M648,208 C646.9,208 646,208.9 646,210 C646,211.1 646.9,212 648,212 C649.1,212 650,211.1 650,210 C650,208.9 649.1,208 648,208 Z M624,208 C622.9,208 622,208.9 622,210 C622,211.1 622.9,212 624,212 C625.1,212 626,211.1 626,210 C626,208.9 625.1,208 624,208 Z M600,208 C598.9,208 598,208.9 598,210 C598,211.1 598.9,212 600,212 C601.1,212 602,211.1 602,210 C602,208.9 601.1,208 600,208 Z M576,208 C574.9,208 574,208.9 574,210 C574,211.1 574.9,212 576,212 C577.1,212 578,211.1 578,210 C578,208.9 577.1,208 576,208 Z M552,208 C550.9,208 550,208.9 550,210 C550,211.1 550.9,212 552,212 C553.1,212 554,211.1 554,210 C554,208.9 553.1,208 552,208 Z M528,208 C526.9,208 526,208.9 526,210 C526,211.1 526.9,212 528,212 C529.1,212 530,211.1 530,210 C530,208.9 529.1,208 528,208 Z M504,208 C502.9,208 502,208.9 502,210 C502,211.1 502.9,212 504,212 C505.1,212 506,211.1 506,210 C506,208.9 505.1,208 504,208 Z M480,208 C478.9,208 478,208.9 478,210 C478,211.1 478.9,212 480,212 C481.1,212 482,211.1 482,210 C482,208.9 481.1,208 480,208 Z M456,208 C454.9,208 454,208.9 454,210 C454,211.1 454.9,212 456,212 C457.1,212 458,211.1 458,210 C458,208.9 457.1,208 456,208 Z M432,208 C430.9,208 430,208.9 430,210 C430,211.1 430.9,212 432,212 C433.1,212 434,211.1 434,210 C434,208.9 433.1,208 432,208 Z M408,208 C406.9,208 406,208.9 406,210 C406,211.1 406.9,212 408,212 C409.1,212 410,211.1 410,210 C410,208.9 409.1,208 408,208 Z M384,208 C382.9,208 382,208.9 382,210 C382,211.1 382.9,212 384,212 C385.1,212 386,211.1 386,210 C386,208.9 385.1,208 384,208 Z M360,208 C358.9,208 358,208.9 358,210 C358,211.1 358.9,212 360,212 C361.1,212 362,211.1 362,210 C362,208.9 361.1,208 360,208 Z M336,208 C334.9,208 334,208.9 334,210 C334,211.1 334.9,212 336,212 C337.1,212 338,211.1 338,210 C338,208.9 337.1,208 336,208 Z M312,208 C310.9,208 310,208.9 310,210 C310,211.1 310.9,212 312,212 C313.1,212 314,211.1 314,210 C314,208.9 313.1,208 312,208 Z M288,208 C286.9,208 286,208.9 286,210 C286,211.1 286.9,212 288,212 C289.1,212 290,211.1 290,210 C290,208.9 289.1,208 288,208 Z M264,208 C262.9,208 262,208.9 262,210 C262,211.1 262.9,212 264,212 C265.1,212 266,211.1 266,210 C266,208.9 265.1,208 264,208 Z M240,208 C238.9,208 238,208.9 238,210 C238,211.1 238.9,212 240,212 C241.1,212 242,211.1 242,210 C242,208.9 241.1,208 240,208 Z M216,208 C214.9,208 214,208.9 214,210 C214,211.1 214.9,212 216,212 C217.1,212 218,211.1 218,210 C218,208.9 217.1,208 216,208 Z M192,208 C190.9,208 190,208.9 190,210 C190,211.1 190.9,212 192,212 C193.1,212 194,211.1 194,210 C194,208.9 193.1,208 192,208 Z M168,208 C166.9,208 166,208.9 166,210 C166,211.1 166.9,212 168,212 C169.1,212 170,211.1 170,210 C170,208.9 169.1,208 168,208 Z M144,208 C142.9,208 142,208.9 142,210 C142,211.1 142.9,212 144,212 C145.1,212 146,211.1 146,210 C146,208.9 145.1,208 144,208 Z M120,208 C118.9,208 118,208.9 118,210 C118,211.1 118.9,212 120,212 C121.1,212 122,211.1 122,210 C122,208.9 121.1,208 120,208 Z M96,208 C94.9,208 94,208.9 94,210 C94,211.1 94.9,212 96,212 C97.1,212 98,211.1 98,210 C98,208.9 97.1,208 96,208 Z M72,208 C70.9,208 70,208.9 70,210 C70,211.1 70.9,212 72,212 C73.1,212 74,211.1 74,210 C74,208.9 73.1,208 72,208 Z M48,208 C46.9,208 46,208.9 46,210 C46,211.1 46.9,212 48,212 C49.1,212 50,211.1 50,210 C50,208.9 49.1,208 48,208 Z M24,208 C22.9,208 22,208.9 22,210 C22,211.1 22.9,212 24,212 C25.1,212 26,211.1 26,210 C26,208.9 25.1,208 24,208 Z M1416,184 C1414.9,184 1414,184.9 1414,186 C1414,187.1 1414.9,188 1416,188 C1417.1,188 1418,187.1 1418,186 C1418,184.9 1417.1,184 1416,184 Z M1392,184 C1390.9,184 1390,184.9 1390,186 C1390,187.1 1390.9,188 1392,188 C1393.1,188 1394,187.1 1394,186 C1394,184.9 1393.1,184 1392,184 Z M1368,184 C1366.9,184 1366,184.9 1366,186 C1366,187.1 1366.9,188 1368,188 C1369.1,188 1370,187.1 1370,186 C1370,184.9 1369.1,184 1368,184 Z M1344,184 C1342.9,184 1342,184.9 1342,186 C1342,187.1 1342.9,188 1344,188 C1345.1,188 1346,187.1 1346,186 C1346,184.9 1345.1,184 1344,184 Z M1320,184 C1318.9,184 1318,184.9 1318,186 C1318,187.1 1318.9,188 1320,188 C1321.1,188 1322,187.1 1322,186 C1322,184.9 1321.1,184 1320,184 Z M1296,184 C1294.9,184 1294,184.9 1294,186 C1294,187.1 1294.9,188 1296,188 C1297.1,188 1298,187.1 1298,186 C1298,184.9 1297.1,184 1296,184 Z M1272,184 C1270.9,184 1270,184.9 1270,186 C1270,187.1 1270.9,188 1272,188 C1273.1,188 1274,187.1 1274,186 C1274,184.9 1273.1,184 1272,184 Z M1248,184 C1246.9,184 1246,184.9 1246,186 C1246,187.1 1246.9,188 1248,188 C1249.1,188 1250,187.1 1250,186 C1250,184.9 1249.1,184 1248,184 Z M1224,184 C1222.9,184 1222,184.9 1222,186 C1222,187.1 1222.9,188 1224,188 C1225.1,188 1226,187.1 1226,186 C1226,184.9 1225.1,184 1224,184 Z M1200,184 C1198.9,184 1198,184.9 1198,186 C1198,187.1 1198.9,188 1200,188 C1201.1,188 1202,187.1 1202,186 C1202,184.9 1201.1,184 1200,184 Z M1176,184 C1174.9,184 1174,184.9 1174,186 C1174,187.1 1174.9,188 1176,188 C1177.1,188 1178,187.1 1178,186 C1178,184.9 1177.1,184 1176,184 Z M1152,184 C1150.9,184 1150,184.9 1150,186 C1150,187.1 1150.9,188 1152,188 C1153.1,188 1154,187.1 1154,186 C1154,184.9 1153.1,184 1152,184 Z M1128,184 C1126.9,184 1126,184.9 1126,186 C1126,187.1 1126.9,188 1128,188 C1129.1,188 1130,187.1 1130,186 C1130,184.9 1129.1,184 1128,184 Z M1104,184 C1102.9,184 1102,184.9 1102,186 C1102,187.1 1102.9,188 1104,188 C1105.1,188 1106,187.1 1106,186 C1106,184.9 1105.1,184 1104,184 Z M1080,184 C1078.9,184 1078,184.9 1078,186 C1078,187.1 1078.9,188 1080,188 C1081.1,188 1082,187.1 1082,186 C1082,184.9 1081.1,184 1080,184 Z M1056,184 C1054.9,184 1054,184.9 1054,186 C1054,187.1 1054.9,188 1056,188 C1057.1,188 1058,187.1 1058,186 C1058,184.9 1057.1,184 1056,184 Z M1032,184 C1030.9,184 1030,184.9 1030,186 C1030,187.1 1030.9,188 1032,188 C1033.1,188 1034,187.1 1034,186 C1034,184.9 1033.1,184 1032,184 Z M1008,184 C1006.9,184 1006,184.9 1006,186 C1006,187.1 1006.9,188 1008,188 C1009.1,188 1010,187.1 1010,186 C1010,184.9 1009.1,184 1008,184 Z M984,184 C982.9,184 982,184.9 982,186 C982,187.1 982.9,188 984,188 C985.1,188 986,187.1 986,186 C986,184.9 985.1,184 984,184 Z M960,184 C958.9,184 958,184.9 958,186 C958,187.1 958.9,188 960,188 C961.1,188 962,187.1 962,186 C962,184.9 961.1,184 960,184 Z M936,184 C934.9,184 934,184.9 934,186 C934,187.1 934.9,188 936,188 C937.1,188 938,187.1 938,186 C938,184.9 937.1,184 936,184 Z M912,184 C910.9,184 910,184.9 910,186 C910,187.1 910.9,188 912,188 C913.1,188 914,187.1 914,186 C914,184.9 913.1,184 912,184 Z M888,184 C886.9,184 886,184.9 886,186 C886,187.1 886.9,188 888,188 C889.1,188 890,187.1 890,186 C890,184.9 889.1,184 888,184 Z M864,184 C862.9,184 862,184.9 862,186 C862,187.1 862.9,188 864,188 C865.1,188 866,187.1 866,186 C866,184.9 865.1,184 864,184 Z M840,184 C838.9,184 838,184.9 838,186 C838,187.1 838.9,188 840,188 C841.1,188 842,187.1 842,186 C842,184.9 841.1,184 840,184 Z M816,184 C814.9,184 814,184.9 814,186 C814,187.1 814.9,188 816,188 C817.1,188 818,187.1 818,186 C818,184.9 817.1,184 816,184 Z M792,184 C790.9,184 790,184.9 790,186 C790,187.1 790.9,188 792,188 C793.1,188 794,187.1 794,186 C794,184.9 793.1,184 792,184 Z M768,184 C766.9,184 766,184.9 766,186 C766,187.1 766.9,188 768,188 C769.1,188 770,187.1 770,186 C770,184.9 769.1,184 768,184 Z M744,184 C742.9,184 742,184.9 742,186 C742,187.1 742.9,188 744,188 C745.1,188 746,187.1 746,186 C746,184.9 745.1,184 744,184 Z M720,184 C718.9,184 718,184.9 718,186 C718,187.1 718.9,188 720,188 C721.1,188 722,187.1 722,186 C722,184.9 721.1,184 720,184 Z M696,184 C694.9,184 694,184.9 694,186 C694,187.1 694.9,188 696,188 C697.1,188 698,187.1 698,186 C698,184.9 697.1,184 696,184 Z M672,184 C670.9,184 670,184.9 670,186 C670,187.1 670.9,188 672,188 C673.1,188 674,187.1 674,186 C674,184.9 673.1,184 672,184 Z M648,184 C646.9,184 646,184.9 646,186 C646,187.1 646.9,188 648,188 C649.1,188 650,187.1 650,186 C650,184.9 649.1,184 648,184 Z M624,184 C622.9,184 622,184.9 622,186 C622,187.1 622.9,188 624,188 C625.1,188 626,187.1 626,186 C626,184.9 625.1,184 624,184 Z M600,184 C598.9,184 598,184.9 598,186 C598,187.1 598.9,188 600,188 C601.1,188 602,187.1 602,186 C602,184.9 601.1,184 600,184 Z M576,184 C574.9,184 574,184.9 574,186 C574,187.1 574.9,188 576,188 C577.1,188 578,187.1 578,186 C578,184.9 577.1,184 576,184 Z M552,184 C550.9,184 550,184.9 550,186 C550,187.1 550.9,188 552,188 C553.1,188 554,187.1 554,186 C554,184.9 553.1,184 552,184 Z M528,184 C526.9,184 526,184.9 526,186 C526,187.1 526.9,188 528,188 C529.1,188 530,187.1 530,186 C530,184.9 529.1,184 528,184 Z M504,184 C502.9,184 502,184.9 502,186 C502,187.1 502.9,188 504,188 C505.1,188 506,187.1 506,186 C506,184.9 505.1,184 504,184 Z M480,184 C478.9,184 478,184.9 478,186 C478,187.1 478.9,188 480,188 C481.1,188 482,187.1 482,186 C482,184.9 481.1,184 480,184 Z M456,184 C454.9,184 454,184.9 454,186 C454,187.1 454.9,188 456,188 C457.1,188 458,187.1 458,186 C458,184.9 457.1,184 456,184 Z M432,184 C430.9,184 430,184.9 430,186 C430,187.1 430.9,188 432,188 C433.1,188 434,187.1 434,186 C434,184.9 433.1,184 432,184 Z M408,184 C406.9,184 406,184.9 406,186 C406,187.1 406.9,188 408,188 C409.1,188 410,187.1 410,186 C410,184.9 409.1,184 408,184 Z M384,184 C382.9,184 382,184.9 382,186 C382,187.1 382.9,188 384,188 C385.1,188 386,187.1 386,186 C386,184.9 385.1,184 384,184 Z M360,184 C358.9,184 358,184.9 358,186 C358,187.1 358.9,188 360,188 C361.1,188 362,187.1 362,186 C362,184.9 361.1,184 360,184 Z M336,184 C334.9,184 334,184.9 334,186 C334,187.1 334.9,188 336,188 C337.1,188 338,187.1 338,186 C338,184.9 337.1,184 336,184 Z M312,184 C310.9,184 310,184.9 310,186 C310,187.1 310.9,188 312,188 C313.1,188 314,187.1 314,186 C314,184.9 313.1,184 312,184 Z M288,184 C286.9,184 286,184.9 286,186 C286,187.1 286.9,188 288,188 C289.1,188 290,187.1 290,186 C290,184.9 289.1,184 288,184 Z M264,184 C262.9,184 262,184.9 262,186 C262,187.1 262.9,188 264,188 C265.1,188 266,187.1 266,186 C266,184.9 265.1,184 264,184 Z M240,184 C238.9,184 238,184.9 238,186 C238,187.1 238.9,188 240,188 C241.1,188 242,187.1 242,186 C242,184.9 241.1,184 240,184 Z M216,184 C214.9,184 214,184.9 214,186 C214,187.1 214.9,188 216,188 C217.1,188 218,187.1 218,186 C218,184.9 217.1,184 216,184 Z M192,184 C190.9,184 190,184.9 190,186 C190,187.1 190.9,188 192,188 C193.1,188 194,187.1 194,186 C194,184.9 193.1,184 192,184 Z M168,184 C166.9,184 166,184.9 166,186 C166,187.1 166.9,188 168,188 C169.1,188 170,187.1 170,186 C170,184.9 169.1,184 168,184 Z M144,184 C142.9,184 142,184.9 142,186 C142,187.1 142.9,188 144,188 C145.1,188 146,187.1 146,186 C146,184.9 145.1,184 144,184 Z M120,184 C118.9,184 118,184.9 118,186 C118,187.1 118.9,188 120,188 C121.1,188 122,187.1 122,186 C122,184.9 121.1,184 120,184 Z M96,184 C94.9,184 94,184.9 94,186 C94,187.1 94.9,188 96,188 C97.1,188 98,187.1 98,186 C98,184.9 97.1,184 96,184 Z M72,184 C70.9,184 70,184.9 70,186 C70,187.1 70.9,188 72,188 C73.1,188 74,187.1 74,186 C74,184.9 73.1,184 72,184 Z M48,184 C46.9,184 46,184.9 46,186 C46,187.1 46.9,188 48,188 C49.1,188 50,187.1 50,186 C50,184.9 49.1,184 48,184 Z M24,184 C22.9,184 22,184.9 22,186 C22,187.1 22.9,188 24,188 C25.1,188 26,187.1 26,186 C26,184.9 25.1,184 24,184 Z M1416,160 C1414.9,160 1414,160.9 1414,162 C1414,163.1 1414.9,164 1416,164 C1417.1,164 1418,163.1 1418,162 C1418,160.9 1417.1,160 1416,160 Z M1392,160 C1390.9,160 1390,160.9 1390,162 C1390,163.1 1390.9,164 1392,164 C1393.1,164 1394,163.1 1394,162 C1394,160.9 1393.1,160 1392,160 Z M1368,160 C1366.9,160 1366,160.9 1366,162 C1366,163.1 1366.9,164 1368,164 C1369.1,164 1370,163.1 1370,162 C1370,160.9 1369.1,160 1368,160 Z M1344,160 C1342.9,160 1342,160.9 1342,162 C1342,163.1 1342.9,164 1344,164 C1345.1,164 1346,163.1 1346,162 C1346,160.9 1345.1,160 1344,160 Z M1320,160 C1318.9,160 1318,160.9 1318,162 C1318,163.1 1318.9,164 1320,164 C1321.1,164 1322,163.1 1322,162 C1322,160.9 1321.1,160 1320,160 Z M1296,160 C1294.9,160 1294,160.9 1294,162 C1294,163.1 1294.9,164 1296,164 C1297.1,164 1298,163.1 1298,162 C1298,160.9 1297.1,160 1296,160 Z M1272,160 C1270.9,160 1270,160.9 1270,162 C1270,163.1 1270.9,164 1272,164 C1273.1,164 1274,163.1 1274,162 C1274,160.9 1273.1,160 1272,160 Z M1248,160 C1246.9,160 1246,160.9 1246,162 C1246,163.1 1246.9,164 1248,164 C1249.1,164 1250,163.1 1250,162 C1250,160.9 1249.1,160 1248,160 Z M1224,160 C1222.9,160 1222,160.9 1222,162 C1222,163.1 1222.9,164 1224,164 C1225.1,164 1226,163.1 1226,162 C1226,160.9 1225.1,160 1224,160 Z M1200,160 C1198.9,160 1198,160.9 1198,162 C1198,163.1 1198.9,164 1200,164 C1201.1,164 1202,163.1 1202,162 C1202,160.9 1201.1,160 1200,160 Z M1176,160 C1174.9,160 1174,160.9 1174,162 C1174,163.1 1174.9,164 1176,164 C1177.1,164 1178,163.1 1178,162 C1178,160.9 1177.1,160 1176,160 Z M1152,160 C1150.9,160 1150,160.9 1150,162 C1150,163.1 1150.9,164 1152,164 C1153.1,164 1154,163.1 1154,162 C1154,160.9 1153.1,160 1152,160 Z M1128,160 C1126.9,160 1126,160.9 1126,162 C1126,163.1 1126.9,164 1128,164 C1129.1,164 1130,163.1 1130,162 C1130,160.9 1129.1,160 1128,160 Z M1104,160 C1102.9,160 1102,160.9 1102,162 C1102,163.1 1102.9,164 1104,164 C1105.1,164 1106,163.1 1106,162 C1106,160.9 1105.1,160 1104,160 Z M1080,160 C1078.9,160 1078,160.9 1078,162 C1078,163.1 1078.9,164 1080,164 C1081.1,164 1082,163.1 1082,162 C1082,160.9 1081.1,160 1080,160 Z M1056,160 C1054.9,160 1054,160.9 1054,162 C1054,163.1 1054.9,164 1056,164 C1057.1,164 1058,163.1 1058,162 C1058,160.9 1057.1,160 1056,160 Z M1032,160 C1030.9,160 1030,160.9 1030,162 C1030,163.1 1030.9,164 1032,164 C1033.1,164 1034,163.1 1034,162 C1034,160.9 1033.1,160 1032,160 Z M1008,160 C1006.9,160 1006,160.9 1006,162 C1006,163.1 1006.9,164 1008,164 C1009.1,164 1010,163.1 1010,162 C1010,160.9 1009.1,160 1008,160 Z M984,160 C982.9,160 982,160.9 982,162 C982,163.1 982.9,164 984,164 C985.1,164 986,163.1 986,162 C986,160.9 985.1,160 984,160 Z M960,160 C958.9,160 958,160.9 958,162 C958,163.1 958.9,164 960,164 C961.1,164 962,163.1 962,162 C962,160.9 961.1,160 960,160 Z M936,160 C934.9,160 934,160.9 934,162 C934,163.1 934.9,164 936,164 C937.1,164 938,163.1 938,162 C938,160.9 937.1,160 936,160 Z M912,160 C910.9,160 910,160.9 910,162 C910,163.1 910.9,164 912,164 C913.1,164 914,163.1 914,162 C914,160.9 913.1,160 912,160 Z M888,160 C886.9,160 886,160.9 886,162 C886,163.1 886.9,164 888,164 C889.1,164 890,163.1 890,162 C890,160.9 889.1,160 888,160 Z M864,160 C862.9,160 862,160.9 862,162 C862,163.1 862.9,164 864,164 C865.1,164 866,163.1 866,162 C866,160.9 865.1,160 864,160 Z M840,160 C838.9,160 838,160.9 838,162 C838,163.1 838.9,164 840,164 C841.1,164 842,163.1 842,162 C842,160.9 841.1,160 840,160 Z M816,160 C814.9,160 814,160.9 814,162 C814,163.1 814.9,164 816,164 C817.1,164 818,163.1 818,162 C818,160.9 817.1,160 816,160 Z M792,160 C790.9,160 790,160.9 790,162 C790,163.1 790.9,164 792,164 C793.1,164 794,163.1 794,162 C794,160.9 793.1,160 792,160 Z M768,160 C766.9,160 766,160.9 766,162 C766,163.1 766.9,164 768,164 C769.1,164 770,163.1 770,162 C770,160.9 769.1,160 768,160 Z M744,160 C742.9,160 742,160.9 742,162 C742,163.1 742.9,164 744,164 C745.1,164 746,163.1 746,162 C746,160.9 745.1,160 744,160 Z M720,160 C718.9,160 718,160.9 718,162 C718,163.1 718.9,164 720,164 C721.1,164 722,163.1 722,162 C722,160.9 721.1,160 720,160 Z M696,160 C694.9,160 694,160.9 694,162 C694,163.1 694.9,164 696,164 C697.1,164 698,163.1 698,162 C698,160.9 697.1,160 696,160 Z M672,160 C670.9,160 670,160.9 670,162 C670,163.1 670.9,164 672,164 C673.1,164 674,163.1 674,162 C674,160.9 673.1,160 672,160 Z M648,160 C646.9,160 646,160.9 646,162 C646,163.1 646.9,164 648,164 C649.1,164 650,163.1 650,162 C650,160.9 649.1,160 648,160 Z M624,160 C622.9,160 622,160.9 622,162 C622,163.1 622.9,164 624,164 C625.1,164 626,163.1 626,162 C626,160.9 625.1,160 624,160 Z M600,160 C598.9,160 598,160.9 598,162 C598,163.1 598.9,164 600,164 C601.1,164 602,163.1 602,162 C602,160.9 601.1,160 600,160 Z M576,160 C574.9,160 574,160.9 574,162 C574,163.1 574.9,164 576,164 C577.1,164 578,163.1 578,162 C578,160.9 577.1,160 576,160 Z M552,160 C550.9,160 550,160.9 550,162 C550,163.1 550.9,164 552,164 C553.1,164 554,163.1 554,162 C554,160.9 553.1,160 552,160 Z M528,160 C526.9,160 526,160.9 526,162 C526,163.1 526.9,164 528,164 C529.1,164 530,163.1 530,162 C530,160.9 529.1,160 528,160 Z M504,160 C502.9,160 502,160.9 502,162 C502,163.1 502.9,164 504,164 C505.1,164 506,163.1 506,162 C506,160.9 505.1,160 504,160 Z M480,160 C478.9,160 478,160.9 478,162 C478,163.1 478.9,164 480,164 C481.1,164 482,163.1 482,162 C482,160.9 481.1,160 480,160 Z M456,160 C454.9,160 454,160.9 454,162 C454,163.1 454.9,164 456,164 C457.1,164 458,163.1 458,162 C458,160.9 457.1,160 456,160 Z M432,160 C430.9,160 430,160.9 430,162 C430,163.1 430.9,164 432,164 C433.1,164 434,163.1 434,162 C434,160.9 433.1,160 432,160 Z M408,160 C406.9,160 406,160.9 406,162 C406,163.1 406.9,164 408,164 C409.1,164 410,163.1 410,162 C410,160.9 409.1,160 408,160 Z M384,160 C382.9,160 382,160.9 382,162 C382,163.1 382.9,164 384,164 C385.1,164 386,163.1 386,162 C386,160.9 385.1,160 384,160 Z M360,160 C358.9,160 358,160.9 358,162 C358,163.1 358.9,164 360,164 C361.1,164 362,163.1 362,162 C362,160.9 361.1,160 360,160 Z M336,160 C334.9,160 334,160.9 334,162 C334,163.1 334.9,164 336,164 C337.1,164 338,163.1 338,162 C338,160.9 337.1,160 336,160 Z M312,160 C310.9,160 310,160.9 310,162 C310,163.1 310.9,164 312,164 C313.1,164 314,163.1 314,162 C314,160.9 313.1,160 312,160 Z M288,160 C286.9,160 286,160.9 286,162 C286,163.1 286.9,164 288,164 C289.1,164 290,163.1 290,162 C290,160.9 289.1,160 288,160 Z M264,160 C262.9,160 262,160.9 262,162 C262,163.1 262.9,164 264,164 C265.1,164 266,163.1 266,162 C266,160.9 265.1,160 264,160 Z M240,160 C238.9,160 238,160.9 238,162 C238,163.1 238.9,164 240,164 C241.1,164 242,163.1 242,162 C242,160.9 241.1,160 240,160 Z M216,160 C214.9,160 214,160.9 214,162 C214,163.1 214.9,164 216,164 C217.1,164 218,163.1 218,162 C218,160.9 217.1,160 216,160 Z M192,160 C190.9,160 190,160.9 190,162 C190,163.1 190.9,164 192,164 C193.1,164 194,163.1 194,162 C194,160.9 193.1,160 192,160 Z M168,160 C166.9,160 166,160.9 166,162 C166,163.1 166.9,164 168,164 C169.1,164 170,163.1 170,162 C170,160.9 169.1,160 168,160 Z M144,160 C142.9,160 142,160.9 142,162 C142,163.1 142.9,164 144,164 C145.1,164 146,163.1 146,162 C146,160.9 145.1,160 144,160 Z M120,160 C118.9,160 118,160.9 118,162 C118,163.1 118.9,164 120,164 C121.1,164 122,163.1 122,162 C122,160.9 121.1,160 120,160 Z M96,160 C94.9,160 94,160.9 94,162 C94,163.1 94.9,164 96,164 C97.1,164 98,163.1 98,162 C98,160.9 97.1,160 96,160 Z M72,160 C70.9,160 70,160.9 70,162 C70,163.1 70.9,164 72,164 C73.1,164 74,163.1 74,162 C74,160.9 73.1,160 72,160 Z M48,160 C46.9,160 46,160.9 46,162 C46,163.1 46.9,164 48,164 C49.1,164 50,163.1 50,162 C50,160.9 49.1,160 48,160 Z M24,160 C22.9,160 22,160.9 22,162 C22,163.1 22.9,164 24,164 C25.1,164 26,163.1 26,162 C26,160.9 25.1,160 24,160 Z M1416,136 C1414.9,136 1414,136.9 1414,138 C1414,139.1 1414.9,140 1416,140 C1417.1,140 1418,139.1 1418,138 C1418,136.9 1417.1,136 1416,136 Z M1392,136 C1390.9,136 1390,136.9 1390,138 C1390,139.1 1390.9,140 1392,140 C1393.1,140 1394,139.1 1394,138 C1394,136.9 1393.1,136 1392,136 Z M1368,136 C1366.9,136 1366,136.9 1366,138 C1366,139.1 1366.9,140 1368,140 C1369.1,140 1370,139.1 1370,138 C1370,136.9 1369.1,136 1368,136 Z M1344,136 C1342.9,136 1342,136.9 1342,138 C1342,139.1 1342.9,140 1344,140 C1345.1,140 1346,139.1 1346,138 C1346,136.9 1345.1,136 1344,136 Z M1320,136 C1318.9,136 1318,136.9 1318,138 C1318,139.1 1318.9,140 1320,140 C1321.1,140 1322,139.1 1322,138 C1322,136.9 1321.1,136 1320,136 Z M1296,136 C1294.9,136 1294,136.9 1294,138 C1294,139.1 1294.9,140 1296,140 C1297.1,140 1298,139.1 1298,138 C1298,136.9 1297.1,136 1296,136 Z M1272,136 C1270.9,136 1270,136.9 1270,138 C1270,139.1 1270.9,140 1272,140 C1273.1,140 1274,139.1 1274,138 C1274,136.9 1273.1,136 1272,136 Z M1248,136 C1246.9,136 1246,136.9 1246,138 C1246,139.1 1246.9,140 1248,140 C1249.1,140 1250,139.1 1250,138 C1250,136.9 1249.1,136 1248,136 Z M1224,136 C1222.9,136 1222,136.9 1222,138 C1222,139.1 1222.9,140 1224,140 C1225.1,140 1226,139.1 1226,138 C1226,136.9 1225.1,136 1224,136 Z M1200,136 C1198.9,136 1198,136.9 1198,138 C1198,139.1 1198.9,140 1200,140 C1201.1,140 1202,139.1 1202,138 C1202,136.9 1201.1,136 1200,136 Z M1176,136 C1174.9,136 1174,136.9 1174,138 C1174,139.1 1174.9,140 1176,140 C1177.1,140 1178,139.1 1178,138 C1178,136.9 1177.1,136 1176,136 Z M1152,136 C1150.9,136 1150,136.9 1150,138 C1150,139.1 1150.9,140 1152,140 C1153.1,140 1154,139.1 1154,138 C1154,136.9 1153.1,136 1152,136 Z M1128,136 C1126.9,136 1126,136.9 1126,138 C1126,139.1 1126.9,140 1128,140 C1129.1,140 1130,139.1 1130,138 C1130,136.9 1129.1,136 1128,136 Z M1104,136 C1102.9,136 1102,136.9 1102,138 C1102,139.1 1102.9,140 1104,140 C1105.1,140 1106,139.1 1106,138 C1106,136.9 1105.1,136 1104,136 Z M1080,136 C1078.9,136 1078,136.9 1078,138 C1078,139.1 1078.9,140 1080,140 C1081.1,140 1082,139.1 1082,138 C1082,136.9 1081.1,136 1080,136 Z M1056,136 C1054.9,136 1054,136.9 1054,138 C1054,139.1 1054.9,140 1056,140 C1057.1,140 1058,139.1 1058,138 C1058,136.9 1057.1,136 1056,136 Z M1032,136 C1030.9,136 1030,136.9 1030,138 C1030,139.1 1030.9,140 1032,140 C1033.1,140 1034,139.1 1034,138 C1034,136.9 1033.1,136 1032,136 Z M1008,136 C1006.9,136 1006,136.9 1006,138 C1006,139.1 1006.9,140 1008,140 C1009.1,140 1010,139.1 1010,138 C1010,136.9 1009.1,136 1008,136 Z M984,136 C982.9,136 982,136.9 982,138 C982,139.1 982.9,140 984,140 C985.1,140 986,139.1 986,138 C986,136.9 985.1,136 984,136 Z M960,136 C958.9,136 958,136.9 958,138 C958,139.1 958.9,140 960,140 C961.1,140 962,139.1 962,138 C962,136.9 961.1,136 960,136 Z M936,136 C934.9,136 934,136.9 934,138 C934,139.1 934.9,140 936,140 C937.1,140 938,139.1 938,138 C938,136.9 937.1,136 936,136 Z M912,136 C910.9,136 910,136.9 910,138 C910,139.1 910.9,140 912,140 C913.1,140 914,139.1 914,138 C914,136.9 913.1,136 912,136 Z M888,136 C886.9,136 886,136.9 886,138 C886,139.1 886.9,140 888,140 C889.1,140 890,139.1 890,138 C890,136.9 889.1,136 888,136 Z M864,136 C862.9,136 862,136.9 862,138 C862,139.1 862.9,140 864,140 C865.1,140 866,139.1 866,138 C866,136.9 865.1,136 864,136 Z M840,136 C838.9,136 838,136.9 838,138 C838,139.1 838.9,140 840,140 C841.1,140 842,139.1 842,138 C842,136.9 841.1,136 840,136 Z M816,136 C814.9,136 814,136.9 814,138 C814,139.1 814.9,140 816,140 C817.1,140 818,139.1 818,138 C818,136.9 817.1,136 816,136 Z M792,136 C790.9,136 790,136.9 790,138 C790,139.1 790.9,140 792,140 C793.1,140 794,139.1 794,138 C794,136.9 793.1,136 792,136 Z M768,136 C766.9,136 766,136.9 766,138 C766,139.1 766.9,140 768,140 C769.1,140 770,139.1 770,138 C770,136.9 769.1,136 768,136 Z M744,136 C742.9,136 742,136.9 742,138 C742,139.1 742.9,140 744,140 C745.1,140 746,139.1 746,138 C746,136.9 745.1,136 744,136 Z M720,136 C718.9,136 718,136.9 718,138 C718,139.1 718.9,140 720,140 C721.1,140 722,139.1 722,138 C722,136.9 721.1,136 720,136 Z M696,136 C694.9,136 694,136.9 694,138 C694,139.1 694.9,140 696,140 C697.1,140 698,139.1 698,138 C698,136.9 697.1,136 696,136 Z M672,136 C670.9,136 670,136.9 670,138 C670,139.1 670.9,140 672,140 C673.1,140 674,139.1 674,138 C674,136.9 673.1,136 672,136 Z M648,136 C646.9,136 646,136.9 646,138 C646,139.1 646.9,140 648,140 C649.1,140 650,139.1 650,138 C650,136.9 649.1,136 648,136 Z M624,136 C622.9,136 622,136.9 622,138 C622,139.1 622.9,140 624,140 C625.1,140 626,139.1 626,138 C626,136.9 625.1,136 624,136 Z M600,136 C598.9,136 598,136.9 598,138 C598,139.1 598.9,140 600,140 C601.1,140 602,139.1 602,138 C602,136.9 601.1,136 600,136 Z M576,136 C574.9,136 574,136.9 574,138 C574,139.1 574.9,140 576,140 C577.1,140 578,139.1 578,138 C578,136.9 577.1,136 576,136 Z M552,136 C550.9,136 550,136.9 550,138 C550,139.1 550.9,140 552,140 C553.1,140 554,139.1 554,138 C554,136.9 553.1,136 552,136 Z M528,136 C526.9,136 526,136.9 526,138 C526,139.1 526.9,140 528,140 C529.1,140 530,139.1 530,138 C530,136.9 529.1,136 528,136 Z M504,136 C502.9,136 502,136.9 502,138 C502,139.1 502.9,140 504,140 C505.1,140 506,139.1 506,138 C506,136.9 505.1,136 504,136 Z M480,136 C478.9,136 478,136.9 478,138 C478,139.1 478.9,140 480,140 C481.1,140 482,139.1 482,138 C482,136.9 481.1,136 480,136 Z M456,136 C454.9,136 454,136.9 454,138 C454,139.1 454.9,140 456,140 C457.1,140 458,139.1 458,138 C458,136.9 457.1,136 456,136 Z M432,136 C430.9,136 430,136.9 430,138 C430,139.1 430.9,140 432,140 C433.1,140 434,139.1 434,138 C434,136.9 433.1,136 432,136 Z M408,136 C406.9,136 406,136.9 406,138 C406,139.1 406.9,140 408,140 C409.1,140 410,139.1 410,138 C410,136.9 409.1,136 408,136 Z M384,136 C382.9,136 382,136.9 382,138 C382,139.1 382.9,140 384,140 C385.1,140 386,139.1 386,138 C386,136.9 385.1,136 384,136 Z M360,136 C358.9,136 358,136.9 358,138 C358,139.1 358.9,140 360,140 C361.1,140 362,139.1 362,138 C362,136.9 361.1,136 360,136 Z M336,136 C334.9,136 334,136.9 334,138 C334,139.1 334.9,140 336,140 C337.1,140 338,139.1 338,138 C338,136.9 337.1,136 336,136 Z M312,136 C310.9,136 310,136.9 310,138 C310,139.1 310.9,140 312,140 C313.1,140 314,139.1 314,138 C314,136.9 313.1,136 312,136 Z M288,136 C286.9,136 286,136.9 286,138 C286,139.1 286.9,140 288,140 C289.1,140 290,139.1 290,138 C290,136.9 289.1,136 288,136 Z M264,136 C262.9,136 262,136.9 262,138 C262,139.1 262.9,140 264,140 C265.1,140 266,139.1 266,138 C266,136.9 265.1,136 264,136 Z M240,136 C238.9,136 238,136.9 238,138 C238,139.1 238.9,140 240,140 C241.1,140 242,139.1 242,138 C242,136.9 241.1,136 240,136 Z M216,136 C214.9,136 214,136.9 214,138 C214,139.1 214.9,140 216,140 C217.1,140 218,139.1 218,138 C218,136.9 217.1,136 216,136 Z M192,136 C190.9,136 190,136.9 190,138 C190,139.1 190.9,140 192,140 C193.1,140 194,139.1 194,138 C194,136.9 193.1,136 192,136 Z M168,136 C166.9,136 166,136.9 166,138 C166,139.1 166.9,140 168,140 C169.1,140 170,139.1 170,138 C170,136.9 169.1,136 168,136 Z M144,136 C142.9,136 142,136.9 142,138 C142,139.1 142.9,140 144,140 C145.1,140 146,139.1 146,138 C146,136.9 145.1,136 144,136 Z M120,136 C118.9,136 118,136.9 118,138 C118,139.1 118.9,140 120,140 C121.1,140 122,139.1 122,138 C122,136.9 121.1,136 120,136 Z M96,136 C94.9,136 94,136.9 94,138 C94,139.1 94.9,140 96,140 C97.1,140 98,139.1 98,138 C98,136.9 97.1,136 96,136 Z M72,136 C70.9,136 70,136.9 70,138 C70,139.1 70.9,140 72,140 C73.1,140 74,139.1 74,138 C74,136.9 73.1,136 72,136 Z M48,136 C46.9,136 46,136.9 46,138 C46,139.1 46.9,140 48,140 C49.1,140 50,139.1 50,138 C50,136.9 49.1,136 48,136 Z M24,136 C22.9,136 22,136.9 22,138 C22,139.1 22.9,140 24,140 C25.1,140 26,139.1 26,138 C26,136.9 25.1,136 24,136 Z M1416,112 C1414.9,112 1414,112.9 1414,114 C1414,115.1 1414.9,116 1416,116 C1417.1,116 1418,115.1 1418,114 C1418,112.9 1417.1,112 1416,112 Z M1392,112 C1390.9,112 1390,112.9 1390,114 C1390,115.1 1390.9,116 1392,116 C1393.1,116 1394,115.1 1394,114 C1394,112.9 1393.1,112 1392,112 Z M1368,112 C1366.9,112 1366,112.9 1366,114 C1366,115.1 1366.9,116 1368,116 C1369.1,116 1370,115.1 1370,114 C1370,112.9 1369.1,112 1368,112 Z M1344,112 C1342.9,112 1342,112.9 1342,114 C1342,115.1 1342.9,116 1344,116 C1345.1,116 1346,115.1 1346,114 C1346,112.9 1345.1,112 1344,112 Z M1320,112 C1318.9,112 1318,112.9 1318,114 C1318,115.1 1318.9,116 1320,116 C1321.1,116 1322,115.1 1322,114 C1322,112.9 1321.1,112 1320,112 Z M1296,112 C1294.9,112 1294,112.9 1294,114 C1294,115.1 1294.9,116 1296,116 C1297.1,116 1298,115.1 1298,114 C1298,112.9 1297.1,112 1296,112 Z M1272,112 C1270.9,112 1270,112.9 1270,114 C1270,115.1 1270.9,116 1272,116 C1273.1,116 1274,115.1 1274,114 C1274,112.9 1273.1,112 1272,112 Z M1248,112 C1246.9,112 1246,112.9 1246,114 C1246,115.1 1246.9,116 1248,116 C1249.1,116 1250,115.1 1250,114 C1250,112.9 1249.1,112 1248,112 Z M1224,112 C1222.9,112 1222,112.9 1222,114 C1222,115.1 1222.9,116 1224,116 C1225.1,116 1226,115.1 1226,114 C1226,112.9 1225.1,112 1224,112 Z M1200,112 C1198.9,112 1198,112.9 1198,114 C1198,115.1 1198.9,116 1200,116 C1201.1,116 1202,115.1 1202,114 C1202,112.9 1201.1,112 1200,112 Z M1176,112 C1174.9,112 1174,112.9 1174,114 C1174,115.1 1174.9,116 1176,116 C1177.1,116 1178,115.1 1178,114 C1178,112.9 1177.1,112 1176,112 Z M1152,112 C1150.9,112 1150,112.9 1150,114 C1150,115.1 1150.9,116 1152,116 C1153.1,116 1154,115.1 1154,114 C1154,112.9 1153.1,112 1152,112 Z M1128,112 C1126.9,112 1126,112.9 1126,114 C1126,115.1 1126.9,116 1128,116 C1129.1,116 1130,115.1 1130,114 C1130,112.9 1129.1,112 1128,112 Z M1104,112 C1102.9,112 1102,112.9 1102,114 C1102,115.1 1102.9,116 1104,116 C1105.1,116 1106,115.1 1106,114 C1106,112.9 1105.1,112 1104,112 Z M1080,112 C1078.9,112 1078,112.9 1078,114 C1078,115.1 1078.9,116 1080,116 C1081.1,116 1082,115.1 1082,114 C1082,112.9 1081.1,112 1080,112 Z M1056,112 C1054.9,112 1054,112.9 1054,114 C1054,115.1 1054.9,116 1056,116 C1057.1,116 1058,115.1 1058,114 C1058,112.9 1057.1,112 1056,112 Z M1032,112 C1030.9,112 1030,112.9 1030,114 C1030,115.1 1030.9,116 1032,116 C1033.1,116 1034,115.1 1034,114 C1034,112.9 1033.1,112 1032,112 Z M1008,112 C1006.9,112 1006,112.9 1006,114 C1006,115.1 1006.9,116 1008,116 C1009.1,116 1010,115.1 1010,114 C1010,112.9 1009.1,112 1008,112 Z M984,112 C982.9,112 982,112.9 982,114 C982,115.1 982.9,116 984,116 C985.1,116 986,115.1 986,114 C986,112.9 985.1,112 984,112 Z M960,112 C958.9,112 958,112.9 958,114 C958,115.1 958.9,116 960,116 C961.1,116 962,115.1 962,114 C962,112.9 961.1,112 960,112 Z M936,112 C934.9,112 934,112.9 934,114 C934,115.1 934.9,116 936,116 C937.1,116 938,115.1 938,114 C938,112.9 937.1,112 936,112 Z M912,112 C910.9,112 910,112.9 910,114 C910,115.1 910.9,116 912,116 C913.1,116 914,115.1 914,114 C914,112.9 913.1,112 912,112 Z M888,112 C886.9,112 886,112.9 886,114 C886,115.1 886.9,116 888,116 C889.1,116 890,115.1 890,114 C890,112.9 889.1,112 888,112 Z M864,112 C862.9,112 862,112.9 862,114 C862,115.1 862.9,116 864,116 C865.1,116 866,115.1 866,114 C866,112.9 865.1,112 864,112 Z M840,112 C838.9,112 838,112.9 838,114 C838,115.1 838.9,116 840,116 C841.1,116 842,115.1 842,114 C842,112.9 841.1,112 840,112 Z M816,112 C814.9,112 814,112.9 814,114 C814,115.1 814.9,116 816,116 C817.1,116 818,115.1 818,114 C818,112.9 817.1,112 816,112 Z M792,112 C790.9,112 790,112.9 790,114 C790,115.1 790.9,116 792,116 C793.1,116 794,115.1 794,114 C794,112.9 793.1,112 792,112 Z M768,112 C766.9,112 766,112.9 766,114 C766,115.1 766.9,116 768,116 C769.1,116 770,115.1 770,114 C770,112.9 769.1,112 768,112 Z M744,112 C742.9,112 742,112.9 742,114 C742,115.1 742.9,116 744,116 C745.1,116 746,115.1 746,114 C746,112.9 745.1,112 744,112 Z M720,112 C718.9,112 718,112.9 718,114 C718,115.1 718.9,116 720,116 C721.1,116 722,115.1 722,114 C722,112.9 721.1,112 720,112 Z M696,112 C694.9,112 694,112.9 694,114 C694,115.1 694.9,116 696,116 C697.1,116 698,115.1 698,114 C698,112.9 697.1,112 696,112 Z M672,112 C670.9,112 670,112.9 670,114 C670,115.1 670.9,116 672,116 C673.1,116 674,115.1 674,114 C674,112.9 673.1,112 672,112 Z M648,112 C646.9,112 646,112.9 646,114 C646,115.1 646.9,116 648,116 C649.1,116 650,115.1 650,114 C650,112.9 649.1,112 648,112 Z M624,112 C622.9,112 622,112.9 622,114 C622,115.1 622.9,116 624,116 C625.1,116 626,115.1 626,114 C626,112.9 625.1,112 624,112 Z M600,112 C598.9,112 598,112.9 598,114 C598,115.1 598.9,116 600,116 C601.1,116 602,115.1 602,114 C602,112.9 601.1,112 600,112 Z M576,112 C574.9,112 574,112.9 574,114 C574,115.1 574.9,116 576,116 C577.1,116 578,115.1 578,114 C578,112.9 577.1,112 576,112 Z M552,112 C550.9,112 550,112.9 550,114 C550,115.1 550.9,116 552,116 C553.1,116 554,115.1 554,114 C554,112.9 553.1,112 552,112 Z M528,112 C526.9,112 526,112.9 526,114 C526,115.1 526.9,116 528,116 C529.1,116 530,115.1 530,114 C530,112.9 529.1,112 528,112 Z M504,112 C502.9,112 502,112.9 502,114 C502,115.1 502.9,116 504,116 C505.1,116 506,115.1 506,114 C506,112.9 505.1,112 504,112 Z M480,112 C478.9,112 478,112.9 478,114 C478,115.1 478.9,116 480,116 C481.1,116 482,115.1 482,114 C482,112.9 481.1,112 480,112 Z M456,112 C454.9,112 454,112.9 454,114 C454,115.1 454.9,116 456,116 C457.1,116 458,115.1 458,114 C458,112.9 457.1,112 456,112 Z M432,112 C430.9,112 430,112.9 430,114 C430,115.1 430.9,116 432,116 C433.1,116 434,115.1 434,114 C434,112.9 433.1,112 432,112 Z M408,112 C406.9,112 406,112.9 406,114 C406,115.1 406.9,116 408,116 C409.1,116 410,115.1 410,114 C410,112.9 409.1,112 408,112 Z M384,112 C382.9,112 382,112.9 382,114 C382,115.1 382.9,116 384,116 C385.1,116 386,115.1 386,114 C386,112.9 385.1,112 384,112 Z M360,112 C358.9,112 358,112.9 358,114 C358,115.1 358.9,116 360,116 C361.1,116 362,115.1 362,114 C362,112.9 361.1,112 360,112 Z M336,112 C334.9,112 334,112.9 334,114 C334,115.1 334.9,116 336,116 C337.1,116 338,115.1 338,114 C338,112.9 337.1,112 336,112 Z M312,112 C310.9,112 310,112.9 310,114 C310,115.1 310.9,116 312,116 C313.1,116 314,115.1 314,114 C314,112.9 313.1,112 312,112 Z M288,112 C286.9,112 286,112.9 286,114 C286,115.1 286.9,116 288,116 C289.1,116 290,115.1 290,114 C290,112.9 289.1,112 288,112 Z M264,112 C262.9,112 262,112.9 262,114 C262,115.1 262.9,116 264,116 C265.1,116 266,115.1 266,114 C266,112.9 265.1,112 264,112 Z M240,112 C238.9,112 238,112.9 238,114 C238,115.1 238.9,116 240,116 C241.1,116 242,115.1 242,114 C242,112.9 241.1,112 240,112 Z M216,112 C214.9,112 214,112.9 214,114 C214,115.1 214.9,116 216,116 C217.1,116 218,115.1 218,114 C218,112.9 217.1,112 216,112 Z M192,112 C190.9,112 190,112.9 190,114 C190,115.1 190.9,116 192,116 C193.1,116 194,115.1 194,114 C194,112.9 193.1,112 192,112 Z M168,112 C166.9,112 166,112.9 166,114 C166,115.1 166.9,116 168,116 C169.1,116 170,115.1 170,114 C170,112.9 169.1,112 168,112 Z M144,112 C142.9,112 142,112.9 142,114 C142,115.1 142.9,116 144,116 C145.1,116 146,115.1 146,114 C146,112.9 145.1,112 144,112 Z M120,112 C118.9,112 118,112.9 118,114 C118,115.1 118.9,116 120,116 C121.1,116 122,115.1 122,114 C122,112.9 121.1,112 120,112 Z M96,112 C94.9,112 94,112.9 94,114 C94,115.1 94.9,116 96,116 C97.1,116 98,115.1 98,114 C98,112.9 97.1,112 96,112 Z M72,112 C70.9,112 70,112.9 70,114 C70,115.1 70.9,116 72,116 C73.1,116 74,115.1 74,114 C74,112.9 73.1,112 72,112 Z M48,112 C46.9,112 46,112.9 46,114 C46,115.1 46.9,116 48,116 C49.1,116 50,115.1 50,114 C50,112.9 49.1,112 48,112 Z M24,112 C22.9,112 22,112.9 22,114 C22,115.1 22.9,116 24,116 C25.1,116 26,115.1 26,114 C26,112.9 25.1,112 24,112 Z M1416,88 C1414.9,88 1414,88.9 1414,90 C1414,91.1 1414.9,92 1416,92 C1417.1,92 1418,91.1 1418,90 C1418,88.9 1417.1,88 1416,88 Z M1392,88 C1390.9,88 1390,88.9 1390,90 C1390,91.1 1390.9,92 1392,92 C1393.1,92 1394,91.1 1394,90 C1394,88.9 1393.1,88 1392,88 Z M1368,88 C1366.9,88 1366,88.9 1366,90 C1366,91.1 1366.9,92 1368,92 C1369.1,92 1370,91.1 1370,90 C1370,88.9 1369.1,88 1368,88 Z M1344,88 C1342.9,88 1342,88.9 1342,90 C1342,91.1 1342.9,92 1344,92 C1345.1,92 1346,91.1 1346,90 C1346,88.9 1345.1,88 1344,88 Z M1320,88 C1318.9,88 1318,88.9 1318,90 C1318,91.1 1318.9,92 1320,92 C1321.1,92 1322,91.1 1322,90 C1322,88.9 1321.1,88 1320,88 Z M1296,88 C1294.9,88 1294,88.9 1294,90 C1294,91.1 1294.9,92 1296,92 C1297.1,92 1298,91.1 1298,90 C1298,88.9 1297.1,88 1296,88 Z M1272,88 C1270.9,88 1270,88.9 1270,90 C1270,91.1 1270.9,92 1272,92 C1273.1,92 1274,91.1 1274,90 C1274,88.9 1273.1,88 1272,88 Z M1248,88 C1246.9,88 1246,88.9 1246,90 C1246,91.1 1246.9,92 1248,92 C1249.1,92 1250,91.1 1250,90 C1250,88.9 1249.1,88 1248,88 Z M1224,88 C1222.9,88 1222,88.9 1222,90 C1222,91.1 1222.9,92 1224,92 C1225.1,92 1226,91.1 1226,90 C1226,88.9 1225.1,88 1224,88 Z M1200,88 C1198.9,88 1198,88.9 1198,90 C1198,91.1 1198.9,92 1200,92 C1201.1,92 1202,91.1 1202,90 C1202,88.9 1201.1,88 1200,88 Z M1176,88 C1174.9,88 1174,88.9 1174,90 C1174,91.1 1174.9,92 1176,92 C1177.1,92 1178,91.1 1178,90 C1178,88.9 1177.1,88 1176,88 Z M1152,88 C1150.9,88 1150,88.9 1150,90 C1150,91.1 1150.9,92 1152,92 C1153.1,92 1154,91.1 1154,90 C1154,88.9 1153.1,88 1152,88 Z M1128,88 C1126.9,88 1126,88.9 1126,90 C1126,91.1 1126.9,92 1128,92 C1129.1,92 1130,91.1 1130,90 C1130,88.9 1129.1,88 1128,88 Z M1104,88 C1102.9,88 1102,88.9 1102,90 C1102,91.1 1102.9,92 1104,92 C1105.1,92 1106,91.1 1106,90 C1106,88.9 1105.1,88 1104,88 Z M1080,88 C1078.9,88 1078,88.9 1078,90 C1078,91.1 1078.9,92 1080,92 C1081.1,92 1082,91.1 1082,90 C1082,88.9 1081.1,88 1080,88 Z M1056,88 C1054.9,88 1054,88.9 1054,90 C1054,91.1 1054.9,92 1056,92 C1057.1,92 1058,91.1 1058,90 C1058,88.9 1057.1,88 1056,88 Z M1032,88 C1030.9,88 1030,88.9 1030,90 C1030,91.1 1030.9,92 1032,92 C1033.1,92 1034,91.1 1034,90 C1034,88.9 1033.1,88 1032,88 Z M1008,88 C1006.9,88 1006,88.9 1006,90 C1006,91.1 1006.9,92 1008,92 C1009.1,92 1010,91.1 1010,90 C1010,88.9 1009.1,88 1008,88 Z M984,88 C982.9,88 982,88.9 982,90 C982,91.1 982.9,92 984,92 C985.1,92 986,91.1 986,90 C986,88.9 985.1,88 984,88 Z M960,88 C958.9,88 958,88.9 958,90 C958,91.1 958.9,92 960,92 C961.1,92 962,91.1 962,90 C962,88.9 961.1,88 960,88 Z M936,88 C934.9,88 934,88.9 934,90 C934,91.1 934.9,92 936,92 C937.1,92 938,91.1 938,90 C938,88.9 937.1,88 936,88 Z M912,88 C910.9,88 910,88.9 910,90 C910,91.1 910.9,92 912,92 C913.1,92 914,91.1 914,90 C914,88.9 913.1,88 912,88 Z M888,88 C886.9,88 886,88.9 886,90 C886,91.1 886.9,92 888,92 C889.1,92 890,91.1 890,90 C890,88.9 889.1,88 888,88 Z M864,88 C862.9,88 862,88.9 862,90 C862,91.1 862.9,92 864,92 C865.1,92 866,91.1 866,90 C866,88.9 865.1,88 864,88 Z M840,88 C838.9,88 838,88.9 838,90 C838,91.1 838.9,92 840,92 C841.1,92 842,91.1 842,90 C842,88.9 841.1,88 840,88 Z M816,88 C814.9,88 814,88.9 814,90 C814,91.1 814.9,92 816,92 C817.1,92 818,91.1 818,90 C818,88.9 817.1,88 816,88 Z M792,88 C790.9,88 790,88.9 790,90 C790,91.1 790.9,92 792,92 C793.1,92 794,91.1 794,90 C794,88.9 793.1,88 792,88 Z M768,88 C766.9,88 766,88.9 766,90 C766,91.1 766.9,92 768,92 C769.1,92 770,91.1 770,90 C770,88.9 769.1,88 768,88 Z M744,88 C742.9,88 742,88.9 742,90 C742,91.1 742.9,92 744,92 C745.1,92 746,91.1 746,90 C746,88.9 745.1,88 744,88 Z M720,88 C718.9,88 718,88.9 718,90 C718,91.1 718.9,92 720,92 C721.1,92 722,91.1 722,90 C722,88.9 721.1,88 720,88 Z M696,88 C694.9,88 694,88.9 694,90 C694,91.1 694.9,92 696,92 C697.1,92 698,91.1 698,90 C698,88.9 697.1,88 696,88 Z M672,88 C670.9,88 670,88.9 670,90 C670,91.1 670.9,92 672,92 C673.1,92 674,91.1 674,90 C674,88.9 673.1,88 672,88 Z M648,88 C646.9,88 646,88.9 646,90 C646,91.1 646.9,92 648,92 C649.1,92 650,91.1 650,90 C650,88.9 649.1,88 648,88 Z M624,88 C622.9,88 622,88.9 622,90 C622,91.1 622.9,92 624,92 C625.1,92 626,91.1 626,90 C626,88.9 625.1,88 624,88 Z M600,88 C598.9,88 598,88.9 598,90 C598,91.1 598.9,92 600,92 C601.1,92 602,91.1 602,90 C602,88.9 601.1,88 600,88 Z M576,88 C574.9,88 574,88.9 574,90 C574,91.1 574.9,92 576,92 C577.1,92 578,91.1 578,90 C578,88.9 577.1,88 576,88 Z M552,88 C550.9,88 550,88.9 550,90 C550,91.1 550.9,92 552,92 C553.1,92 554,91.1 554,90 C554,88.9 553.1,88 552,88 Z M528,88 C526.9,88 526,88.9 526,90 C526,91.1 526.9,92 528,92 C529.1,92 530,91.1 530,90 C530,88.9 529.1,88 528,88 Z M504,88 C502.9,88 502,88.9 502,90 C502,91.1 502.9,92 504,92 C505.1,92 506,91.1 506,90 C506,88.9 505.1,88 504,88 Z M480,88 C478.9,88 478,88.9 478,90 C478,91.1 478.9,92 480,92 C481.1,92 482,91.1 482,90 C482,88.9 481.1,88 480,88 Z M456,88 C454.9,88 454,88.9 454,90 C454,91.1 454.9,92 456,92 C457.1,92 458,91.1 458,90 C458,88.9 457.1,88 456,88 Z M432,88 C430.9,88 430,88.9 430,90 C430,91.1 430.9,92 432,92 C433.1,92 434,91.1 434,90 C434,88.9 433.1,88 432,88 Z M408,88 C406.9,88 406,88.9 406,90 C406,91.1 406.9,92 408,92 C409.1,92 410,91.1 410,90 C410,88.9 409.1,88 408,88 Z M384,88 C382.9,88 382,88.9 382,90 C382,91.1 382.9,92 384,92 C385.1,92 386,91.1 386,90 C386,88.9 385.1,88 384,88 Z M360,88 C358.9,88 358,88.9 358,90 C358,91.1 358.9,92 360,92 C361.1,92 362,91.1 362,90 C362,88.9 361.1,88 360,88 Z M336,88 C334.9,88 334,88.9 334,90 C334,91.1 334.9,92 336,92 C337.1,92 338,91.1 338,90 C338,88.9 337.1,88 336,88 Z M312,88 C310.9,88 310,88.9 310,90 C310,91.1 310.9,92 312,92 C313.1,92 314,91.1 314,90 C314,88.9 313.1,88 312,88 Z M288,88 C286.9,88 286,88.9 286,90 C286,91.1 286.9,92 288,92 C289.1,92 290,91.1 290,90 C290,88.9 289.1,88 288,88 Z M264,88 C262.9,88 262,88.9 262,90 C262,91.1 262.9,92 264,92 C265.1,92 266,91.1 266,90 C266,88.9 265.1,88 264,88 Z M240,88 C238.9,88 238,88.9 238,90 C238,91.1 238.9,92 240,92 C241.1,92 242,91.1 242,90 C242,88.9 241.1,88 240,88 Z M216,88 C214.9,88 214,88.9 214,90 C214,91.1 214.9,92 216,92 C217.1,92 218,91.1 218,90 C218,88.9 217.1,88 216,88 Z M192,88 C190.9,88 190,88.9 190,90 C190,91.1 190.9,92 192,92 C193.1,92 194,91.1 194,90 C194,88.9 193.1,88 192,88 Z M168,88 C166.9,88 166,88.9 166,90 C166,91.1 166.9,92 168,92 C169.1,92 170,91.1 170,90 C170,88.9 169.1,88 168,88 Z M144,88 C142.9,88 142,88.9 142,90 C142,91.1 142.9,92 144,92 C145.1,92 146,91.1 146,90 C146,88.9 145.1,88 144,88 Z M120,88 C118.9,88 118,88.9 118,90 C118,91.1 118.9,92 120,92 C121.1,92 122,91.1 122,90 C122,88.9 121.1,88 120,88 Z M96,88 C94.9,88 94,88.9 94,90 C94,91.1 94.9,92 96,92 C97.1,92 98,91.1 98,90 C98,88.9 97.1,88 96,88 Z M72,88 C70.9,88 70,88.9 70,90 C70,91.1 70.9,92 72,92 C73.1,92 74,91.1 74,90 C74,88.9 73.1,88 72,88 Z M48,88 C46.9,88 46,88.9 46,90 C46,91.1 46.9,92 48,92 C49.1,92 50,91.1 50,90 C50,88.9 49.1,88 48,88 Z M24,88 C22.9,88 22,88.9 22,90 C22,91.1 22.9,92 24,92 C25.1,92 26,91.1 26,90 C26,88.9 25.1,88 24,88 Z M1416,64 C1414.9,64 1414,64.9 1414,66 C1414,67.1 1414.9,68 1416,68 C1417.1,68 1418,67.1 1418,66 C1418,64.9 1417.1,64 1416,64 Z M1392,64 C1390.9,64 1390,64.9 1390,66 C1390,67.1 1390.9,68 1392,68 C1393.1,68 1394,67.1 1394,66 C1394,64.9 1393.1,64 1392,64 Z M1368,64 C1366.9,64 1366,64.9 1366,66 C1366,67.1 1366.9,68 1368,68 C1369.1,68 1370,67.1 1370,66 C1370,64.9 1369.1,64 1368,64 Z M1344,64 C1342.9,64 1342,64.9 1342,66 C1342,67.1 1342.9,68 1344,68 C1345.1,68 1346,67.1 1346,66 C1346,64.9 1345.1,64 1344,64 Z M1320,64 C1318.9,64 1318,64.9 1318,66 C1318,67.1 1318.9,68 1320,68 C1321.1,68 1322,67.1 1322,66 C1322,64.9 1321.1,64 1320,64 Z M1296,64 C1294.9,64 1294,64.9 1294,66 C1294,67.1 1294.9,68 1296,68 C1297.1,68 1298,67.1 1298,66 C1298,64.9 1297.1,64 1296,64 Z M1272,64 C1270.9,64 1270,64.9 1270,66 C1270,67.1 1270.9,68 1272,68 C1273.1,68 1274,67.1 1274,66 C1274,64.9 1273.1,64 1272,64 Z M1248,64 C1246.9,64 1246,64.9 1246,66 C1246,67.1 1246.9,68 1248,68 C1249.1,68 1250,67.1 1250,66 C1250,64.9 1249.1,64 1248,64 Z M1224,64 C1222.9,64 1222,64.9 1222,66 C1222,67.1 1222.9,68 1224,68 C1225.1,68 1226,67.1 1226,66 C1226,64.9 1225.1,64 1224,64 Z M1200,64 C1198.9,64 1198,64.9 1198,66 C1198,67.1 1198.9,68 1200,68 C1201.1,68 1202,67.1 1202,66 C1202,64.9 1201.1,64 1200,64 Z M1176,64 C1174.9,64 1174,64.9 1174,66 C1174,67.1 1174.9,68 1176,68 C1177.1,68 1178,67.1 1178,66 C1178,64.9 1177.1,64 1176,64 Z M1152,64 C1150.9,64 1150,64.9 1150,66 C1150,67.1 1150.9,68 1152,68 C1153.1,68 1154,67.1 1154,66 C1154,64.9 1153.1,64 1152,64 Z M1128,64 C1126.9,64 1126,64.9 1126,66 C1126,67.1 1126.9,68 1128,68 C1129.1,68 1130,67.1 1130,66 C1130,64.9 1129.1,64 1128,64 Z M1104,64 C1102.9,64 1102,64.9 1102,66 C1102,67.1 1102.9,68 1104,68 C1105.1,68 1106,67.1 1106,66 C1106,64.9 1105.1,64 1104,64 Z M1080,64 C1078.9,64 1078,64.9 1078,66 C1078,67.1 1078.9,68 1080,68 C1081.1,68 1082,67.1 1082,66 C1082,64.9 1081.1,64 1080,64 Z M1056,64 C1054.9,64 1054,64.9 1054,66 C1054,67.1 1054.9,68 1056,68 C1057.1,68 1058,67.1 1058,66 C1058,64.9 1057.1,64 1056,64 Z M1032,64 C1030.9,64 1030,64.9 1030,66 C1030,67.1 1030.9,68 1032,68 C1033.1,68 1034,67.1 1034,66 C1034,64.9 1033.1,64 1032,64 Z M1008,64 C1006.9,64 1006,64.9 1006,66 C1006,67.1 1006.9,68 1008,68 C1009.1,68 1010,67.1 1010,66 C1010,64.9 1009.1,64 1008,64 Z M984,64 C982.9,64 982,64.9 982,66 C982,67.1 982.9,68 984,68 C985.1,68 986,67.1 986,66 C986,64.9 985.1,64 984,64 Z M960,64 C958.9,64 958,64.9 958,66 C958,67.1 958.9,68 960,68 C961.1,68 962,67.1 962,66 C962,64.9 961.1,64 960,64 Z M936,64 C934.9,64 934,64.9 934,66 C934,67.1 934.9,68 936,68 C937.1,68 938,67.1 938,66 C938,64.9 937.1,64 936,64 Z M912,64 C910.9,64 910,64.9 910,66 C910,67.1 910.9,68 912,68 C913.1,68 914,67.1 914,66 C914,64.9 913.1,64 912,64 Z M888,64 C886.9,64 886,64.9 886,66 C886,67.1 886.9,68 888,68 C889.1,68 890,67.1 890,66 C890,64.9 889.1,64 888,64 Z M864,64 C862.9,64 862,64.9 862,66 C862,67.1 862.9,68 864,68 C865.1,68 866,67.1 866,66 C866,64.9 865.1,64 864,64 Z M840,64 C838.9,64 838,64.9 838,66 C838,67.1 838.9,68 840,68 C841.1,68 842,67.1 842,66 C842,64.9 841.1,64 840,64 Z M816,64 C814.9,64 814,64.9 814,66 C814,67.1 814.9,68 816,68 C817.1,68 818,67.1 818,66 C818,64.9 817.1,64 816,64 Z M792,64 C790.9,64 790,64.9 790,66 C790,67.1 790.9,68 792,68 C793.1,68 794,67.1 794,66 C794,64.9 793.1,64 792,64 Z M768,64 C766.9,64 766,64.9 766,66 C766,67.1 766.9,68 768,68 C769.1,68 770,67.1 770,66 C770,64.9 769.1,64 768,64 Z M744,64 C742.9,64 742,64.9 742,66 C742,67.1 742.9,68 744,68 C745.1,68 746,67.1 746,66 C746,64.9 745.1,64 744,64 Z M720,64 C718.9,64 718,64.9 718,66 C718,67.1 718.9,68 720,68 C721.1,68 722,67.1 722,66 C722,64.9 721.1,64 720,64 Z M696,64 C694.9,64 694,64.9 694,66 C694,67.1 694.9,68 696,68 C697.1,68 698,67.1 698,66 C698,64.9 697.1,64 696,64 Z M672,64 C670.9,64 670,64.9 670,66 C670,67.1 670.9,68 672,68 C673.1,68 674,67.1 674,66 C674,64.9 673.1,64 672,64 Z M648,64 C646.9,64 646,64.9 646,66 C646,67.1 646.9,68 648,68 C649.1,68 650,67.1 650,66 C650,64.9 649.1,64 648,64 Z M624,64 C622.9,64 622,64.9 622,66 C622,67.1 622.9,68 624,68 C625.1,68 626,67.1 626,66 C626,64.9 625.1,64 624,64 Z M600,64 C598.9,64 598,64.9 598,66 C598,67.1 598.9,68 600,68 C601.1,68 602,67.1 602,66 C602,64.9 601.1,64 600,64 Z M576,64 C574.9,64 574,64.9 574,66 C574,67.1 574.9,68 576,68 C577.1,68 578,67.1 578,66 C578,64.9 577.1,64 576,64 Z M552,64 C550.9,64 550,64.9 550,66 C550,67.1 550.9,68 552,68 C553.1,68 554,67.1 554,66 C554,64.9 553.1,64 552,64 Z M528,64 C526.9,64 526,64.9 526,66 C526,67.1 526.9,68 528,68 C529.1,68 530,67.1 530,66 C530,64.9 529.1,64 528,64 Z M504,64 C502.9,64 502,64.9 502,66 C502,67.1 502.9,68 504,68 C505.1,68 506,67.1 506,66 C506,64.9 505.1,64 504,64 Z M480,64 C478.9,64 478,64.9 478,66 C478,67.1 478.9,68 480,68 C481.1,68 482,67.1 482,66 C482,64.9 481.1,64 480,64 Z M456,64 C454.9,64 454,64.9 454,66 C454,67.1 454.9,68 456,68 C457.1,68 458,67.1 458,66 C458,64.9 457.1,64 456,64 Z M432,64 C430.9,64 430,64.9 430,66 C430,67.1 430.9,68 432,68 C433.1,68 434,67.1 434,66 C434,64.9 433.1,64 432,64 Z M408,64 C406.9,64 406,64.9 406,66 C406,67.1 406.9,68 408,68 C409.1,68 410,67.1 410,66 C410,64.9 409.1,64 408,64 Z M384,64 C382.9,64 382,64.9 382,66 C382,67.1 382.9,68 384,68 C385.1,68 386,67.1 386,66 C386,64.9 385.1,64 384,64 Z M360,64 C358.9,64 358,64.9 358,66 C358,67.1 358.9,68 360,68 C361.1,68 362,67.1 362,66 C362,64.9 361.1,64 360,64 Z M336,64 C334.9,64 334,64.9 334,66 C334,67.1 334.9,68 336,68 C337.1,68 338,67.1 338,66 C338,64.9 337.1,64 336,64 Z M312,64 C310.9,64 310,64.9 310,66 C310,67.1 310.9,68 312,68 C313.1,68 314,67.1 314,66 C314,64.9 313.1,64 312,64 Z M288,64 C286.9,64 286,64.9 286,66 C286,67.1 286.9,68 288,68 C289.1,68 290,67.1 290,66 C290,64.9 289.1,64 288,64 Z M264,64 C262.9,64 262,64.9 262,66 C262,67.1 262.9,68 264,68 C265.1,68 266,67.1 266,66 C266,64.9 265.1,64 264,64 Z M240,64 C238.9,64 238,64.9 238,66 C238,67.1 238.9,68 240,68 C241.1,68 242,67.1 242,66 C242,64.9 241.1,64 240,64 Z M216,64 C214.9,64 214,64.9 214,66 C214,67.1 214.9,68 216,68 C217.1,68 218,67.1 218,66 C218,64.9 217.1,64 216,64 Z M192,64 C190.9,64 190,64.9 190,66 C190,67.1 190.9,68 192,68 C193.1,68 194,67.1 194,66 C194,64.9 193.1,64 192,64 Z M168,64 C166.9,64 166,64.9 166,66 C166,67.1 166.9,68 168,68 C169.1,68 170,67.1 170,66 C170,64.9 169.1,64 168,64 Z M144,64 C142.9,64 142,64.9 142,66 C142,67.1 142.9,68 144,68 C145.1,68 146,67.1 146,66 C146,64.9 145.1,64 144,64 Z M120,64 C118.9,64 118,64.9 118,66 C118,67.1 118.9,68 120,68 C121.1,68 122,67.1 122,66 C122,64.9 121.1,64 120,64 Z M96,64 C94.9,64 94,64.9 94,66 C94,67.1 94.9,68 96,68 C97.1,68 98,67.1 98,66 C98,64.9 97.1,64 96,64 Z M72,64 C70.9,64 70,64.9 70,66 C70,67.1 70.9,68 72,68 C73.1,68 74,67.1 74,66 C74,64.9 73.1,64 72,64 Z M48,64 C46.9,64 46,64.9 46,66 C46,67.1 46.9,68 48,68 C49.1,68 50,67.1 50,66 C50,64.9 49.1,64 48,64 Z M24,64 C22.9,64 22,64.9 22,66 C22,67.1 22.9,68 24,68 C25.1,68 26,67.1 26,66 C26,64.9 25.1,64 24,64 Z M1416,40 C1414.9,40 1414,40.9 1414,42 C1414,43.1 1414.9,44 1416,44 C1417.1,44 1418,43.1 1418,42 C1418,40.9 1417.1,40 1416,40 Z M1392,40 C1390.9,40 1390,40.9 1390,42 C1390,43.1 1390.9,44 1392,44 C1393.1,44 1394,43.1 1394,42 C1394,40.9 1393.1,40 1392,40 Z M1368,40 C1366.9,40 1366,40.9 1366,42 C1366,43.1 1366.9,44 1368,44 C1369.1,44 1370,43.1 1370,42 C1370,40.9 1369.1,40 1368,40 Z M1344,40 C1342.9,40 1342,40.9 1342,42 C1342,43.1 1342.9,44 1344,44 C1345.1,44 1346,43.1 1346,42 C1346,40.9 1345.1,40 1344,40 Z M1320,40 C1318.9,40 1318,40.9 1318,42 C1318,43.1 1318.9,44 1320,44 C1321.1,44 1322,43.1 1322,42 C1322,40.9 1321.1,40 1320,40 Z M1296,40 C1294.9,40 1294,40.9 1294,42 C1294,43.1 1294.9,44 1296,44 C1297.1,44 1298,43.1 1298,42 C1298,40.9 1297.1,40 1296,40 Z M1272,40 C1270.9,40 1270,40.9 1270,42 C1270,43.1 1270.9,44 1272,44 C1273.1,44 1274,43.1 1274,42 C1274,40.9 1273.1,40 1272,40 Z M1248,40 C1246.9,40 1246,40.9 1246,42 C1246,43.1 1246.9,44 1248,44 C1249.1,44 1250,43.1 1250,42 C1250,40.9 1249.1,40 1248,40 Z M1224,40 C1222.9,40 1222,40.9 1222,42 C1222,43.1 1222.9,44 1224,44 C1225.1,44 1226,43.1 1226,42 C1226,40.9 1225.1,40 1224,40 Z M1200,40 C1198.9,40 1198,40.9 1198,42 C1198,43.1 1198.9,44 1200,44 C1201.1,44 1202,43.1 1202,42 C1202,40.9 1201.1,40 1200,40 Z M1176,40 C1174.9,40 1174,40.9 1174,42 C1174,43.1 1174.9,44 1176,44 C1177.1,44 1178,43.1 1178,42 C1178,40.9 1177.1,40 1176,40 Z M1152,40 C1150.9,40 1150,40.9 1150,42 C1150,43.1 1150.9,44 1152,44 C1153.1,44 1154,43.1 1154,42 C1154,40.9 1153.1,40 1152,40 Z M1128,40 C1126.9,40 1126,40.9 1126,42 C1126,43.1 1126.9,44 1128,44 C1129.1,44 1130,43.1 1130,42 C1130,40.9 1129.1,40 1128,40 Z M1104,40 C1102.9,40 1102,40.9 1102,42 C1102,43.1 1102.9,44 1104,44 C1105.1,44 1106,43.1 1106,42 C1106,40.9 1105.1,40 1104,40 Z M1080,40 C1078.9,40 1078,40.9 1078,42 C1078,43.1 1078.9,44 1080,44 C1081.1,44 1082,43.1 1082,42 C1082,40.9 1081.1,40 1080,40 Z M1056,40 C1054.9,40 1054,40.9 1054,42 C1054,43.1 1054.9,44 1056,44 C1057.1,44 1058,43.1 1058,42 C1058,40.9 1057.1,40 1056,40 Z M1032,40 C1030.9,40 1030,40.9 1030,42 C1030,43.1 1030.9,44 1032,44 C1033.1,44 1034,43.1 1034,42 C1034,40.9 1033.1,40 1032,40 Z M1008,40 C1006.9,40 1006,40.9 1006,42 C1006,43.1 1006.9,44 1008,44 C1009.1,44 1010,43.1 1010,42 C1010,40.9 1009.1,40 1008,40 Z M984,40 C982.9,40 982,40.9 982,42 C982,43.1 982.9,44 984,44 C985.1,44 986,43.1 986,42 C986,40.9 985.1,40 984,40 Z M960,40 C958.9,40 958,40.9 958,42 C958,43.1 958.9,44 960,44 C961.1,44 962,43.1 962,42 C962,40.9 961.1,40 960,40 Z M936,40 C934.9,40 934,40.9 934,42 C934,43.1 934.9,44 936,44 C937.1,44 938,43.1 938,42 C938,40.9 937.1,40 936,40 Z M912,40 C910.9,40 910,40.9 910,42 C910,43.1 910.9,44 912,44 C913.1,44 914,43.1 914,42 C914,40.9 913.1,40 912,40 Z M888,40 C886.9,40 886,40.9 886,42 C886,43.1 886.9,44 888,44 C889.1,44 890,43.1 890,42 C890,40.9 889.1,40 888,40 Z M864,40 C862.9,40 862,40.9 862,42 C862,43.1 862.9,44 864,44 C865.1,44 866,43.1 866,42 C866,40.9 865.1,40 864,40 Z M840,40 C838.9,40 838,40.9 838,42 C838,43.1 838.9,44 840,44 C841.1,44 842,43.1 842,42 C842,40.9 841.1,40 840,40 Z M816,40 C814.9,40 814,40.9 814,42 C814,43.1 814.9,44 816,44 C817.1,44 818,43.1 818,42 C818,40.9 817.1,40 816,40 Z M792,40 C790.9,40 790,40.9 790,42 C790,43.1 790.9,44 792,44 C793.1,44 794,43.1 794,42 C794,40.9 793.1,40 792,40 Z M768,40 C766.9,40 766,40.9 766,42 C766,43.1 766.9,44 768,44 C769.1,44 770,43.1 770,42 C770,40.9 769.1,40 768,40 Z M744,40 C742.9,40 742,40.9 742,42 C742,43.1 742.9,44 744,44 C745.1,44 746,43.1 746,42 C746,40.9 745.1,40 744,40 Z M720,40 C718.9,40 718,40.9 718,42 C718,43.1 718.9,44 720,44 C721.1,44 722,43.1 722,42 C722,40.9 721.1,40 720,40 Z M696,40 C694.9,40 694,40.9 694,42 C694,43.1 694.9,44 696,44 C697.1,44 698,43.1 698,42 C698,40.9 697.1,40 696,40 Z M672,40 C670.9,40 670,40.9 670,42 C670,43.1 670.9,44 672,44 C673.1,44 674,43.1 674,42 C674,40.9 673.1,40 672,40 Z M648,40 C646.9,40 646,40.9 646,42 C646,43.1 646.9,44 648,44 C649.1,44 650,43.1 650,42 C650,40.9 649.1,40 648,40 Z M624,40 C622.9,40 622,40.9 622,42 C622,43.1 622.9,44 624,44 C625.1,44 626,43.1 626,42 C626,40.9 625.1,40 624,40 Z M600,40 C598.9,40 598,40.9 598,42 C598,43.1 598.9,44 600,44 C601.1,44 602,43.1 602,42 C602,40.9 601.1,40 600,40 Z M576,40 C574.9,40 574,40.9 574,42 C574,43.1 574.9,44 576,44 C577.1,44 578,43.1 578,42 C578,40.9 577.1,40 576,40 Z M552,40 C550.9,40 550,40.9 550,42 C550,43.1 550.9,44 552,44 C553.1,44 554,43.1 554,42 C554,40.9 553.1,40 552,40 Z M528,40 C526.9,40 526,40.9 526,42 C526,43.1 526.9,44 528,44 C529.1,44 530,43.1 530,42 C530,40.9 529.1,40 528,40 Z M504,40 C502.9,40 502,40.9 502,42 C502,43.1 502.9,44 504,44 C505.1,44 506,43.1 506,42 C506,40.9 505.1,40 504,40 Z M480,40 C478.9,40 478,40.9 478,42 C478,43.1 478.9,44 480,44 C481.1,44 482,43.1 482,42 C482,40.9 481.1,40 480,40 Z M456,40 C454.9,40 454,40.9 454,42 C454,43.1 454.9,44 456,44 C457.1,44 458,43.1 458,42 C458,40.9 457.1,40 456,40 Z M432,40 C430.9,40 430,40.9 430,42 C430,43.1 430.9,44 432,44 C433.1,44 434,43.1 434,42 C434,40.9 433.1,40 432,40 Z M408,40 C406.9,40 406,40.9 406,42 C406,43.1 406.9,44 408,44 C409.1,44 410,43.1 410,42 C410,40.9 409.1,40 408,40 Z M384,40 C382.9,40 382,40.9 382,42 C382,43.1 382.9,44 384,44 C385.1,44 386,43.1 386,42 C386,40.9 385.1,40 384,40 Z M360,40 C358.9,40 358,40.9 358,42 C358,43.1 358.9,44 360,44 C361.1,44 362,43.1 362,42 C362,40.9 361.1,40 360,40 Z M336,40 C334.9,40 334,40.9 334,42 C334,43.1 334.9,44 336,44 C337.1,44 338,43.1 338,42 C338,40.9 337.1,40 336,40 Z M312,40 C310.9,40 310,40.9 310,42 C310,43.1 310.9,44 312,44 C313.1,44 314,43.1 314,42 C314,40.9 313.1,40 312,40 Z M288,40 C286.9,40 286,40.9 286,42 C286,43.1 286.9,44 288,44 C289.1,44 290,43.1 290,42 C290,40.9 289.1,40 288,40 Z M264,40 C262.9,40 262,40.9 262,42 C262,43.1 262.9,44 264,44 C265.1,44 266,43.1 266,42 C266,40.9 265.1,40 264,40 Z M240,40 C238.9,40 238,40.9 238,42 C238,43.1 238.9,44 240,44 C241.1,44 242,43.1 242,42 C242,40.9 241.1,40 240,40 Z M216,40 C214.9,40 214,40.9 214,42 C214,43.1 214.9,44 216,44 C217.1,44 218,43.1 218,42 C218,40.9 217.1,40 216,40 Z M192,40 C190.9,40 190,40.9 190,42 C190,43.1 190.9,44 192,44 C193.1,44 194,43.1 194,42 C194,40.9 193.1,40 192,40 Z M168,40 C166.9,40 166,40.9 166,42 C166,43.1 166.9,44 168,44 C169.1,44 170,43.1 170,42 C170,40.9 169.1,40 168,40 Z M144,40 C142.9,40 142,40.9 142,42 C142,43.1 142.9,44 144,44 C145.1,44 146,43.1 146,42 C146,40.9 145.1,40 144,40 Z M120,40 C118.9,40 118,40.9 118,42 C118,43.1 118.9,44 120,44 C121.1,44 122,43.1 122,42 C122,40.9 121.1,40 120,40 Z M96,40 C94.9,40 94,40.9 94,42 C94,43.1 94.9,44 96,44 C97.1,44 98,43.1 98,42 C98,40.9 97.1,40 96,40 Z M72,40 C70.9,40 70,40.9 70,42 C70,43.1 70.9,44 72,44 C73.1,44 74,43.1 74,42 C74,40.9 73.1,40 72,40 Z M48,40 C46.9,40 46,40.9 46,42 C46,43.1 46.9,44 48,44 C49.1,44 50,43.1 50,42 C50,40.9 49.1,40 48,40 Z M24,40 C22.9,40 22,40.9 22,42 C22,43.1 22.9,44 24,44 C25.1,44 26,43.1 26,42 C26,40.9 25.1,40 24,40 Z M1416,20 C1417.1,20 1418,19.1 1418,18 C1418,16.9 1417.1,16 1416,16 C1414.9,16 1414,16.9 1414,18 C1414,19.1 1414.9,20 1416,20 Z M1392,16 C1390.9,16 1390,16.9 1390,18 C1390,19.1 1390.9,20 1392,20 C1393.1,20 1394,19.1 1394,18 C1394,16.9 1393.1,16 1392,16 Z M1368,16 C1366.9,16 1366,16.9 1366,18 C1366,19.1 1366.9,20 1368,20 C1369.1,20 1370,19.1 1370,18 C1370,16.9 1369.1,16 1368,16 Z M1344,16 C1342.9,16 1342,16.9 1342,18 C1342,19.1 1342.9,20 1344,20 C1345.1,20 1346,19.1 1346,18 C1346,16.9 1345.1,16 1344,16 Z M1320,16 C1318.9,16 1318,16.9 1318,18 C1318,19.1 1318.9,20 1320,20 C1321.1,20 1322,19.1 1322,18 C1322,16.9 1321.1,16 1320,16 Z M1296,16 C1294.9,16 1294,16.9 1294,18 C1294,19.1 1294.9,20 1296,20 C1297.1,20 1298,19.1 1298,18 C1298,16.9 1297.1,16 1296,16 Z M1272,16 C1270.9,16 1270,16.9 1270,18 C1270,19.1 1270.9,20 1272,20 C1273.1,20 1274,19.1 1274,18 C1274,16.9 1273.1,16 1272,16 Z M1248,16 C1246.9,16 1246,16.9 1246,18 C1246,19.1 1246.9,20 1248,20 C1249.1,20 1250,19.1 1250,18 C1250,16.9 1249.1,16 1248,16 Z M1224,16 C1222.9,16 1222,16.9 1222,18 C1222,19.1 1222.9,20 1224,20 C1225.1,20 1226,19.1 1226,18 C1226,16.9 1225.1,16 1224,16 Z M1200,16 C1198.9,16 1198,16.9 1198,18 C1198,19.1 1198.9,20 1200,20 C1201.1,20 1202,19.1 1202,18 C1202,16.9 1201.1,16 1200,16 Z M1176,16 C1174.9,16 1174,16.9 1174,18 C1174,19.1 1174.9,20 1176,20 C1177.1,20 1178,19.1 1178,18 C1178,16.9 1177.1,16 1176,16 Z M1152,16 C1150.9,16 1150,16.9 1150,18 C1150,19.1 1150.9,20 1152,20 C1153.1,20 1154,19.1 1154,18 C1154,16.9 1153.1,16 1152,16 Z M1128,16 C1126.9,16 1126,16.9 1126,18 C1126,19.1 1126.9,20 1128,20 C1129.1,20 1130,19.1 1130,18 C1130,16.9 1129.1,16 1128,16 Z M1104,16 C1102.9,16 1102,16.9 1102,18 C1102,19.1 1102.9,20 1104,20 C1105.1,20 1106,19.1 1106,18 C1106,16.9 1105.1,16 1104,16 Z M1080,16 C1078.9,16 1078,16.9 1078,18 C1078,19.1 1078.9,20 1080,20 C1081.1,20 1082,19.1 1082,18 C1082,16.9 1081.1,16 1080,16 Z M1056,16 C1054.9,16 1054,16.9 1054,18 C1054,19.1 1054.9,20 1056,20 C1057.1,20 1058,19.1 1058,18 C1058,16.9 1057.1,16 1056,16 Z M1032,16 C1030.9,16 1030,16.9 1030,18 C1030,19.1 1030.9,20 1032,20 C1033.1,20 1034,19.1 1034,18 C1034,16.9 1033.1,16 1032,16 Z M1008,16 C1006.9,16 1006,16.9 1006,18 C1006,19.1 1006.9,20 1008,20 C1009.1,20 1010,19.1 1010,18 C1010,16.9 1009.1,16 1008,16 Z M984,16 C982.9,16 982,16.9 982,18 C982,19.1 982.9,20 984,20 C985.1,20 986,19.1 986,18 C986,16.9 985.1,16 984,16 Z M960,16 C958.9,16 958,16.9 958,18 C958,19.1 958.9,20 960,20 C961.1,20 962,19.1 962,18 C962,16.9 961.1,16 960,16 Z M936,16 C934.9,16 934,16.9 934,18 C934,19.1 934.9,20 936,20 C937.1,20 938,19.1 938,18 C938,16.9 937.1,16 936,16 Z M912,16 C910.9,16 910,16.9 910,18 C910,19.1 910.9,20 912,20 C913.1,20 914,19.1 914,18 C914,16.9 913.1,16 912,16 Z M888,16 C886.9,16 886,16.9 886,18 C886,19.1 886.9,20 888,20 C889.1,20 890,19.1 890,18 C890,16.9 889.1,16 888,16 Z M864,16 C862.9,16 862,16.9 862,18 C862,19.1 862.9,20 864,20 C865.1,20 866,19.1 866,18 C866,16.9 865.1,16 864,16 Z M840,16 C838.9,16 838,16.9 838,18 C838,19.1 838.9,20 840,20 C841.1,20 842,19.1 842,18 C842,16.9 841.1,16 840,16 Z M816,16 C814.9,16 814,16.9 814,18 C814,19.1 814.9,20 816,20 C817.1,20 818,19.1 818,18 C818,16.9 817.1,16 816,16 Z M792,16 C790.9,16 790,16.9 790,18 C790,19.1 790.9,20 792,20 C793.1,20 794,19.1 794,18 C794,16.9 793.1,16 792,16 Z M768,16 C766.9,16 766,16.9 766,18 C766,19.1 766.9,20 768,20 C769.1,20 770,19.1 770,18 C770,16.9 769.1,16 768,16 Z M744,16 C742.9,16 742,16.9 742,18 C742,19.1 742.9,20 744,20 C745.1,20 746,19.1 746,18 C746,16.9 745.1,16 744,16 Z M720,16 C718.9,16 718,16.9 718,18 C718,19.1 718.9,20 720,20 C721.1,20 722,19.1 722,18 C722,16.9 721.1,16 720,16 Z M696,16 C694.9,16 694,16.9 694,18 C694,19.1 694.9,20 696,20 C697.1,20 698,19.1 698,18 C698,16.9 697.1,16 696,16 Z M672,16 C670.9,16 670,16.9 670,18 C670,19.1 670.9,20 672,20 C673.1,20 674,19.1 674,18 C674,16.9 673.1,16 672,16 Z M648,16 C646.9,16 646,16.9 646,18 C646,19.1 646.9,20 648,20 C649.1,20 650,19.1 650,18 C650,16.9 649.1,16 648,16 Z M624,16 C622.9,16 622,16.9 622,18 C622,19.1 622.9,20 624,20 C625.1,20 626,19.1 626,18 C626,16.9 625.1,16 624,16 Z M600,16 C598.9,16 598,16.9 598,18 C598,19.1 598.9,20 600,20 C601.1,20 602,19.1 602,18 C602,16.9 601.1,16 600,16 Z M576,16 C574.9,16 574,16.9 574,18 C574,19.1 574.9,20 576,20 C577.1,20 578,19.1 578,18 C578,16.9 577.1,16 576,16 Z M552,16 C550.9,16 550,16.9 550,18 C550,19.1 550.9,20 552,20 C553.1,20 554,19.1 554,18 C554,16.9 553.1,16 552,16 Z M528,16 C526.9,16 526,16.9 526,18 C526,19.1 526.9,20 528,20 C529.1,20 530,19.1 530,18 C530,16.9 529.1,16 528,16 Z M504,16 C502.9,16 502,16.9 502,18 C502,19.1 502.9,20 504,20 C505.1,20 506,19.1 506,18 C506,16.9 505.1,16 504,16 Z M480,16 C478.9,16 478,16.9 478,18 C478,19.1 478.9,20 480,20 C481.1,20 482,19.1 482,18 C482,16.9 481.1,16 480,16 Z M456,16 C454.9,16 454,16.9 454,18 C454,19.1 454.9,20 456,20 C457.1,20 458,19.1 458,18 C458,16.9 457.1,16 456,16 Z M432,16 C430.9,16 430,16.9 430,18 C430,19.1 430.9,20 432,20 C433.1,20 434,19.1 434,18 C434,16.9 433.1,16 432,16 Z M408,16 C406.9,16 406,16.9 406,18 C406,19.1 406.9,20 408,20 C409.1,20 410,19.1 410,18 C410,16.9 409.1,16 408,16 Z M384,16 C382.9,16 382,16.9 382,18 C382,19.1 382.9,20 384,20 C385.1,20 386,19.1 386,18 C386,16.9 385.1,16 384,16 Z M360,16 C358.9,16 358,16.9 358,18 C358,19.1 358.9,20 360,20 C361.1,20 362,19.1 362,18 C362,16.9 361.1,16 360,16 Z M336,16 C334.9,16 334,16.9 334,18 C334,19.1 334.9,20 336,20 C337.1,20 338,19.1 338,18 C338,16.9 337.1,16 336,16 Z M312,16 C310.9,16 310,16.9 310,18 C310,19.1 310.9,20 312,20 C313.1,20 314,19.1 314,18 C314,16.9 313.1,16 312,16 Z M288,16 C286.9,16 286,16.9 286,18 C286,19.1 286.9,20 288,20 C289.1,20 290,19.1 290,18 C290,16.9 289.1,16 288,16 Z M264,16 C262.9,16 262,16.9 262,18 C262,19.1 262.9,20 264,20 C265.1,20 266,19.1 266,18 C266,16.9 265.1,16 264,16 Z M240,16 C238.9,16 238,16.9 238,18 C238,19.1 238.9,20 240,20 C241.1,20 242,19.1 242,18 C242,16.9 241.1,16 240,16 Z M216,16 C214.9,16 214,16.9 214,18 C214,19.1 214.9,20 216,20 C217.1,20 218,19.1 218,18 C218,16.9 217.1,16 216,16 Z M192,16 C190.9,16 190,16.9 190,18 C190,19.1 190.9,20 192,20 C193.1,20 194,19.1 194,18 C194,16.9 193.1,16 192,16 Z M168,16 C166.9,16 166,16.9 166,18 C166,19.1 166.9,20 168,20 C169.1,20 170,19.1 170,18 C170,16.9 169.1,16 168,16 Z M144,16 C142.9,16 142,16.9 142,18 C142,19.1 142.9,20 144,20 C145.1,20 146,19.1 146,18 C146,16.9 145.1,16 144,16 Z M120,16 C118.9,16 118,16.9 118,18 C118,19.1 118.9,20 120,20 C121.1,20 122,19.1 122,18 C122,16.9 121.1,16 120,16 Z M96,16 C94.9,16 94,16.9 94,18 C94,19.1 94.9,20 96,20 C97.1,20 98,19.1 98,18 C98,16.9 97.1,16 96,16 Z M72,16 C70.9,16 70,16.9 70,18 C70,19.1 70.9,20 72,20 C73.1,20 74,19.1 74,18 C74,16.9 73.1,16 72,16 Z M48,16 C46.9,16 46,16.9 46,18 C46,19.1 46.9,20 48,20 C49.1,20 50,19.1 50,18 C50,16.9 49.1,16 48,16 Z M24,16 C22.9,16 22,16.9 22,18 C22,19.1 22.9,20 24,20 C25.1,20 26,19.1 26,18 C26,16.9 25.1,16 24,16 Z" opacity=".4" transform="translate(-22 -16)"/>
</svg>
