<svg xmlns="http://www.w3.org/2000/svg" width="93" height="50" viewBox="0 0 93 50">
  <g fill="none" fill-rule="evenodd">
    <g transform="translate(13.68)">
      <path fill="#4070FF" d="M12.2304,18.72 C18.9850634,18.72 24.4608,24.1957366 24.4608,30.9504 L24.4608,37.44 L24.4608,37.44 L24.4608,38.74 C24.4608,40.3195344 23.1803344,41.6 21.6008,41.6 L2.86,41.6 C1.28046562,41.6 1.85371049e-15,40.3195344 0,38.74 L0,37.44 L0,37.44 L0,30.9504 C9.49149148e-16,24.1957366 5.4757366,18.72 12.2304,18.72 Z M12.2304,16.64 C16.7335089,16.64 20.384,12.9150091 20.384,8.32 C20.384,3.72499088 16.7335089,0 12.2304,0 C7.72729106,0 4.0768,3.72499088 4.0768,8.32 C4.0768,12.9150091 7.72729106,16.64 12.2304,16.64 Z"/>
      <path fill="#3DCC3D" d="M55.0368,18.72 C61.7914634,18.72 67.2672,24.1957366 67.2672,30.9504 L67.2672,37.44 L67.2672,37.44 L67.2672,38.74 C67.2672,40.3195344 65.9867344,41.6 64.4072,41.6 L45.6664,41.6 C44.0868656,41.6 42.8064,40.3195344 42.8064,38.74 L42.8064,37.44 L42.8064,37.44 L42.8064,30.9504 C42.8064,24.1957366 48.2821366,18.72 55.0368,18.72 Z M55.0368,16.64 C59.5399089,16.64 63.1904,12.9150091 63.1904,8.32 C63.1904,3.72499088 59.5399089,0 55.0368,0 C50.5336911,0 46.8832,3.72499088 46.8832,8.32 C46.8832,12.9150091 50.5336911,16.64 55.0368,16.64 Z"/>
      <path fill="#2BD9D9" d="M32.928,22.3 C40.7218424,22.3 47.04,28.6181576 47.04,36.412 L47.04,44.44 L47.04,44.44 L47.04,46.005 C47.04,47.8579153 45.5379153,49.36 43.685,49.36 L22.171,49.36 C20.3180847,49.36 18.816,47.8579153 18.816,46.005 L18.816,44.44 L18.816,44.44 L18.816,36.412 C18.816,28.6181576 25.1341576,22.3 32.928,22.3 Z M32.928,19.84 C38.1238949,19.84 42.336,15.4344819 42.336,10 C42.336,4.56551806 38.1238949,0.16 32.928,0.16 C27.7321051,0.16 23.52,4.56551806 23.52,10 C23.52,15.4344819 27.7321051,19.84 32.928,19.84 Z"/>
    </g>
    <g transform="translate(.94 13)">
      <ellipse cx="12.348" cy="12.6" fill="#FFD426" opacity=".4" rx="9.261" ry="9.45"/>
      <ellipse cx="12.348" cy="12.6" fill="#FFD426" opacity=".6" rx="6.174" ry="6.3"/>
      <ellipse cx="12.348" cy="12.6" fill="#FFF" rx="3.087" ry="3.15"/>
      <rect width="3.087" height="7.875" x="10.805" fill="#FFD426" rx="1.544"/>
      <rect width="3.087" height="7.875" x="10.805" y="17.325" fill="#FFD426" rx="1.544"/>
      <path fill="#FFD426" d="M24.696 12.6C24.696 13.4698485 23.9908485 14.175 23.121 14.175L18.5535 14.175C17.6836515 14.175 16.9785 13.4698485 16.9785 12.6 16.9785 11.7301515 17.6836515 11.025 18.5535 11.025L23.121 11.025C23.9908485 11.025 24.696 11.7301515 24.696 12.6zM7.7175 12.6C7.7175 13.4698485 7.01234848 14.175 6.1425 14.175L1.575 14.175C.705151519 14.175 1.06525716e-16 13.4698485 0 12.6-1.06525716e-16 11.7301515.705151519 11.025 1.575 11.025L6.1425 11.025C7.01234848 11.025 7.7175 11.7301515 7.7175 12.6z"/>
    </g>
    <g transform="translate(77.38 10)">
      <ellipse cx="7.056" cy="7.2" fill="#FFD426" opacity=".4" rx="5.292" ry="5.4"/>
      <ellipse cx="7.056" cy="7.2" fill="#FFD426" opacity=".6" rx="3.528" ry="3.6"/>
      <ellipse cx="7.056" cy="7.2" fill="#FFF" rx="1.764" ry="1.8"/>
      <rect width="1.764" height="4.5" x="6.174" fill="#FFD426" rx=".882"/>
      <rect width="1.764" height="4.5" x="6.174" y="9.9" fill="#FFD426" rx=".882"/>
      <path fill="#FFD426" d="M14.112 7.2C14.112 7.69705627 13.7090563 8.1 13.212 8.1L10.602 8.1C10.1049437 8.1 9.702 7.69705627 9.702 7.2 9.702 6.70294373 10.1049437 6.3 10.602 6.3L13.212 6.3C13.7090563 6.3 14.112 6.70294373 14.112 7.2zM4.41 7.2C4.41 7.69705627 4.00705627 8.1 3.51 8.1L.9 8.1C.402943725 8.1 6.08718376e-17 7.69705627 0 7.2-6.08718376e-17 6.70294373.402943725 6.3.9 6.3L3.51 6.3C4.00705627 6.3 4.41 6.70294373 4.41 7.2z"/>
    </g>
  </g>
</svg>
